<?xml version="1.0" encoding="UTF-8"?>
<svg version="1.1"
     xmlns="http://www.w3.org/2000/svg"
     width="768"
     height="auto"
     viewBox="0 0 768 768"
>
    <path d="M0 0 C3.7380924 0.00315185 7.47538398 -0.02036772 11.21337891 -0.0456543 C27.38524537 -0.08842927 43.13369101 1.00930809 59.13916016 3.31567383 C59.88663513 3.42271637 60.63411011 3.52975891 61.40423584 3.64004517 C65.37358436 4.22245727 69.32011443 4.89498187 73.26416016 5.62817383 C74.42189941 5.84127197 75.57963867 6.05437012 76.77246094 6.27392578 C107.10270813 12.00518505 136.13532719 21.36159162 164.13916016 34.31567383 C165.79641144 35.06373641 167.45395639 35.81114879 169.11181641 36.55786133 C180.54940788 41.7738294 191.38028127 47.82693821 202.13916016 54.31567383 C202.82574707 54.72398438 203.51233398 55.13229492 204.21972656 55.55297852 C222.84978371 66.65192937 239.95322033 80.01013621 256.32006836 94.19311523 C258.68597164 96.23986539 261.00840316 98.22194349 263.55322266 100.04614258 C264.07658203 100.46508789 264.59994141 100.8840332 265.13916016 101.31567383 C265.13916016 101.97567383 265.13916016 102.63567383 265.13916016 103.31567383 C265.7239917 103.57525879 266.30882324 103.83484375 266.91137695 104.10229492 C269.29786369 105.4021129 270.87218227 106.80524105 272.78369141 108.72973633 C273.46109375 109.40907227 274.13849609 110.0884082 274.83642578 110.78833008 C275.8834668 111.85374023 275.8834668 111.85374023 276.95166016 112.94067383 C277.63808594 113.62774414 278.32451172 114.31481445 279.03173828 115.02270508 C283.59748216 119.62732473 287.9208773 124.3925065 292.13916016 129.31567383 C292.5904126 129.83452148 293.04166504 130.35336914 293.5065918 130.88793945 C313.09620671 153.41429579 330.01512458 178.01386705 344.13916016 204.31567383 C344.60128906 205.17273926 345.06341797 206.02980469 345.53955078 206.9128418 C368.8668601 250.63931216 383.34544429 300.88925651 387.13916016 350.31567383 C387.22456055 351.4057373 387.30996094 352.49580078 387.39794922 353.61889648 C388.21059548 365.09934536 388.3820449 376.55885777 388.38916016 388.06567383 C388.39017227 389.55017532 388.39017227 389.55017532 388.39120483 391.06466675 C388.37366734 407.33831303 387.62307084 423.20692627 385.13916016 439.31567383 C384.88972656 440.9952417 384.88972656 440.9952417 384.63525391 442.70874023 C377.95999254 486.63566853 363.75619572 529.48037045 342.13916016 568.31567383 C341.70490723 569.09894043 341.2706543 569.88220703 340.82324219 570.68920898 C321.67098386 605.02612225 296.85836923 639.2192609 267.13916016 665.31567383 C266.47916016 665.31567383 265.81916016 665.31567383 265.13916016 665.31567383 C264.80916016 666.30567383 264.47916016 667.29567383 264.13916016 668.31567383 C262.09228516 670.19067383 262.09228516 670.19067383 259.38916016 672.31567383 C255.73937394 675.2205101 252.15124721 678.15087819 248.63330078 681.21606445 C224.69040964 701.97458111 196.71290608 718.77859876 168.13916016 732.31567383 C167.42066895 732.66162598 166.70217773 733.00757813 165.96191406 733.36401367 C127.23445206 751.9162408 85.67279686 762.42495901 43.13916016 767.31567383 C42.41630325 767.40300278 41.69344635 767.49033173 40.94868469 767.58030701 C34.0167575 768.35615987 27.14132085 768.4932017 20.17041016 768.51879883 C18.93665649 768.5244989 17.70290283 768.53019897 16.4317627 768.53607178 C13.82300664 768.5454824 11.21423891 768.55204002 8.60546875 768.5559082 C4.70631704 768.56550848 0.80771739 768.59652669 -3.09130859 768.62817383 C-19.55849041 768.6979852 -35.56374968 767.67498994 -51.86083984 765.31567383 C-52.96900055 765.15850891 -52.96900055 765.15850891 -54.09954834 764.99816895 C-58.01514058 764.43380933 -61.90795609 763.78238045 -65.79833984 763.06567383 C-67.52225952 762.7498938 -67.52225952 762.7498938 -69.28100586 762.42773438 C-122.69404339 752.30464692 -176.49396629 730.49895248 -219.86083984 697.31567383 C-220.77091797 696.64665039 -221.68099609 695.97762695 -222.61865234 695.28833008 C-234.6715346 686.40133823 -246.2847328 676.99823301 -257.22021484 666.76489258 C-260.24328859 663.96094696 -263.36246624 661.29094782 -266.53271484 658.65551758 C-267.86083984 657.31567383 -267.86083984 657.31567383 -267.86083984 655.31567383 C-268.52083984 655.31567383 -269.18083984 655.31567383 -269.86083984 655.31567383 C-271.41162109 653.74145508 -271.41162109 653.74145508 -273.17333984 651.62817383 C-275.29728668 649.11765089 -277.41585328 646.70743961 -279.79833984 644.44067383 C-281.86083984 642.31567383 -281.86083984 642.31567383 -281.86083984 640.31567383 C-282.52083984 640.31567383 -283.18083984 640.31567383 -283.86083984 640.31567383 C-285.60302734 638.43676758 -285.60302734 638.43676758 -287.73583984 635.75317383 C-288.54150391 634.74383789 -289.34716797 633.73450195 -290.17724609 632.69458008 C-290.82910889 631.87111084 -290.82910889 631.87111084 -291.49414062 631.03100586 C-292.88180302 629.28936313 -294.28857392 627.56488034 -295.70068359 625.84301758 C-307.70982855 611.13794212 -318.23066812 595.66936102 -327.86083984 579.31567383 C-328.42617432 578.36869629 -328.42617432 578.36869629 -329.00292969 577.40258789 C-355.29536311 533.21620136 -371.52680076 483.23994825 -377.86083984 432.31567383 C-377.99114594 431.31443481 -377.99114594 431.31443481 -378.12408447 430.29296875 C-380.14567707 414.41138734 -380.26000745 398.55718143 -380.23583984 382.56567383 C-380.23560066 381.89222553 -380.23536148 381.21877724 -380.23511505 380.52492142 C-380.22583678 359.85702639 -379.75874195 339.67433108 -375.86083984 319.31567383 C-375.53140381 317.53725098 -375.53140381 317.53725098 -375.1953125 315.72290039 C-366.94398048 272.07785051 -352.19040234 228.3469312 -328.86083984 190.31567383 C-328.29316895 189.38416504 -327.72549805 188.45265625 -327.140625 187.49291992 C-315.46189287 168.4639368 -302.54410729 150.57043182 -287.89990234 133.71411133 C-285.76264649 131.29439938 -285.76264649 131.29439938 -283.86083984 128.31567383 C-283.20083984 128.31567383 -282.54083984 128.31567383 -281.86083984 128.31567383 C-281.64637207 127.77595947 -281.4319043 127.23624512 -281.2109375 126.68017578 C-279.37609477 123.46671252 -276.87224496 121.06140384 -274.25927734 118.48364258 C-273.42633652 117.65138908 -273.42633652 117.65138908 -272.5765686 116.80232239 C-271.40041542 115.62918593 -270.22183709 114.45847653 -269.04101562 113.29003906 C-267.25780531 111.52491649 -265.48255961 109.75209359 -263.70849609 107.9777832 C-257.92974701 102.21666961 -252.12471481 96.55412411 -245.86083984 91.31567383 C-245.27157715 90.81430908 -244.68231445 90.31294434 -244.07519531 89.79638672 C-213.68648903 64.0971934 -179.13214152 43.76282078 -142.47851562 28.41430664 C-140.30397584 27.50165704 -138.14123063 26.56823137 -135.98193359 25.62036133 C-107.23234527 13.42760429 -75.76720669 6.26121382 -44.86083984 2.31567383 C-44.19445496 2.22847076 -43.52807007 2.1412677 -42.8414917 2.05142212 C-28.57078885 0.23680177 -14.37339603 -0.0252296 0 0 Z M-50.61083984 49.06567383 C-52.08145874 49.31619507 -52.08145874 49.31619507 -53.58178711 49.57177734 C-65.13521353 51.61503492 -76.50902057 54.36785299 -87.86083984 57.31567383 C-88.63443848 57.51241699 -89.40803711 57.70916016 -90.20507812 57.91186523 C-108.37596485 62.59319256 -126.03356577 70.07777856 -142.86083984 78.31567383 C-144.03388672 78.87125977 -145.20693359 79.4268457 -146.41552734 79.99926758 C-165.05279462 88.94258226 -182.39522827 99.84995251 -198.86083984 112.31567383 C-199.72580078 112.95891602 -200.59076172 113.6021582 -201.48193359 114.26489258 C-207.91040844 119.13637902 -213.9788333 124.47099242 -220.06616211 129.75805664 C-221.30019452 130.82908463 -222.5378767 131.89591725 -223.77856445 132.95922852 C-228.81528188 137.30521379 -233.59754179 141.85953032 -238.29833984 146.56567383 C-239.41909912 147.6876416 -239.41909912 147.6876416 -240.5625 148.83227539 C-245.25452453 153.57646762 -249.63649472 158.38453344 -253.75146484 163.63989258 C-255.78430622 166.2185895 -257.89190184 168.70696214 -260.03540039 171.19311523 C-265.03584423 177.00241727 -269.60699745 182.93027642 -273.86083984 189.31567383 C-274.98039062 190.94182617 -274.98039062 190.94182617 -276.12255859 192.60083008 C-282.91834392 202.52896303 -288.98422391 212.82203193 -294.86083984 223.31567383 C-295.25658203 224.0138623 -295.65232422 224.71205078 -296.06005859 225.43139648 C-316.82442828 262.23854497 -329.79734239 305.26024189 -333.86083984 347.31567383 C-333.9676709 348.39961426 -334.07450195 349.48355469 -334.18457031 350.6003418 C-341.47199356 428.05493094 -322.24476457 509.03664658 -277.86083984 573.31567383 C-277.44092773 573.92701172 -277.02101563 574.53834961 -276.58837891 575.16821289 C-268.3982157 587.02828529 -259.6555912 598.49619872 -249.88818359 609.10473633 C-248.09940644 611.05550293 -246.38240866 613.04547778 -244.67333984 615.06567383 C-236.79562932 624.10295389 -228.07423514 632.64970207 -218.86083984 640.31567383 C-218.00748047 641.04657227 -217.15412109 641.7774707 -216.27490234 642.53051758 C-192.70838579 662.52730709 -166.84104969 679.16134141 -138.86083984 692.31567383 C-138.25594727 692.60216797 -137.65105469 692.88866211 -137.02783203 693.18383789 C-104.20203478 708.57257164 -67.95157046 718.74924288 -31.86083984 722.31567383 C-31.02504395 722.40179932 -30.18924805 722.4879248 -29.328125 722.57666016 C-19.49467833 723.4722774 -9.67524266 723.501796 0.19238281 723.50097656 C3.10578346 723.50314894 6.01879554 723.52132709 8.93212891 723.5402832 C26.46570593 723.59420844 43.6983252 722.2808725 60.95166016 719.06567383 C62.71231812 718.74252197 62.71231812 718.74252197 64.50854492 718.4128418 C91.46955496 713.32914976 116.98003096 705.1996367 142.13916016 694.31567383 C142.88085449 693.99518066 143.62254883 693.6746875 144.38671875 693.34448242 C161.7384862 685.74378929 178.74223018 676.3622247 194.13916016 665.31567383 C194.72600586 664.89576172 195.31285156 664.47584961 195.91748047 664.04321289 C203.83843968 658.35771542 211.624395 652.53159069 219.13916016 646.31567383 C220.07759766 645.56286133 221.01603516 644.81004883 221.98291016 644.03442383 C230.65843544 636.93970598 238.58038398 629.09068629 246.51416016 621.19067383 C247.08820587 620.6218045 247.66225159 620.05293518 248.25369263 619.46682739 C249.89591429 617.83629748 251.53052568 616.1985438 253.16259766 614.55786133 C253.66503494 614.05938187 254.16747223 613.5609024 254.68513489 613.0473175 C257.36431801 610.63353139 257.36431801 610.63353139 258.13916016 607.31567383 C258.79916016 607.31567383 259.45916016 607.31567383 260.13916016 607.31567383 C261.8501838 605.35320943 263.439351 603.38408809 265.01416016 601.31567383 C265.50029785 600.68483887 265.98643555 600.05400391 266.48730469 599.40405273 C267.52150868 598.05829768 268.55250445 596.7100721 269.58056641 595.35961914 C271.06926829 593.40733027 272.57166969 591.4663544 274.07666016 589.52661133 C328.07270893 519.40023424 351.64679497 430.0323499 340.65039062 342.31567383 C335.99969235 306.77931005 326.37021425 272.8007026 311.13916016 240.31567383 C310.73584473 239.45393555 310.3325293 238.59219727 309.91699219 237.7043457 C298.33416692 213.22214671 283.83538168 189.86514548 266.13916016 169.31567383 C265.16039819 168.15366869 264.1825974 166.99085352 263.20556641 165.82739258 C258.25283816 159.9570032 253.25902779 154.25435728 247.73291016 148.90942383 C246.13916016 147.31567383 246.13916016 147.31567383 244.13916016 144.75317383 C241.83463574 141.94453469 239.28188685 139.73853312 236.52197266 137.38598633 C234.30227695 135.45739826 232.1498666 133.46991133 230.00512695 131.45874023 C223.04863413 124.95902711 215.71712676 119.07114358 208.13916016 113.31567383 C207.56359375 112.87255859 206.98802734 112.42944336 206.39501953 111.97290039 C149.98337711 68.63533671 78.44001231 45.12433374 7.51318359 45.13037109 C4.67220736 45.12819909 1.83162989 45.11002025 -1.00927734 45.09106445 C-17.66863313 45.03929371 -34.18127387 46.22083912 -50.61083984 49.06567383 Z "
          fill="#000000" transform="translate(379.86083984375,-0.315673828125)"/>
    <path d="M0 0 C5.25100538 3.07402607 9.27408873 7.84316866 11.625 13.4375 C13.37346478 24.80062471 9.75346654 32.8709897 4.375 42.4375 C3.63208336 43.80922282 2.89180163 45.18237569 2.15405273 46.55688477 C0.33465327 49.93178768 -1.51563357 53.28838865 -3.378479 56.63946533 C-4.77297027 59.15556248 -6.14308162 61.68460926 -7.51171875 64.21484375 C-9.39225878 67.68551294 -11.28717996 71.14774453 -13.19140625 74.60546875 C-17.11653083 81.76097212 -20.92917821 88.97596749 -24.75 96.1875 C-30.53134075 107.09567499 -36.34459108 117.98542876 -42.20654297 128.85058594 C-46.44399681 136.70508288 -50.66361923 144.56900283 -54.875 152.4375 C-59.69606163 161.44413802 -64.52847963 170.44453499 -69.375 179.4375 C-76.73263253 193.09115936 -84.05534383 206.76345848 -91.375 220.4375 C-95.75009156 228.61072321 -100.12698497 236.78297407 -104.5078125 244.953125 C-106.09335651 247.91192261 -107.67695786 250.87174351 -109.25965881 253.83206177 C-110.2091931 255.6071342 -111.15989579 257.38157506 -112.11108398 259.15576172 C-113.28696559 261.34908506 -114.46109657 263.5433483 -115.63305664 265.73876953 C-117.19539365 268.64882518 -118.77918555 271.54568772 -120.375 274.4375 C-120.86597168 275.34467773 -121.35694336 276.25185547 -121.86279297 277.18652344 C-127.78770957 287.68880537 -135.66087072 291.97008169 -146.1875 297.4375 C-147.43736464 298.09537538 -148.68670474 298.75424817 -149.93554688 299.4140625 C-152.49902792 300.76775155 -155.06447889 302.11759061 -157.63134766 303.46484375 C-163.23614959 306.41184123 -168.80432337 309.4266482 -174.375 312.4375 C-183.36730109 317.28524931 -192.36848852 322.11621027 -201.375 326.9375 C-213.64622961 333.50679001 -225.90428449 340.1002871 -238.15722656 346.70361328 C-244.6472146 350.20072216 -251.13869468 353.69506078 -257.62988281 357.18994141 C-263.02196543 360.09318373 -268.41370947 362.99705079 -273.8046875 365.90234375 C-275.95310918 367.0599252 -278.10154669 368.21747726 -280.25 369.375 C-281.31009277 369.94629639 -282.37018555 370.51759277 -283.46240234 371.10620117 C-289.19355723 374.19283868 -294.92933988 377.2705418 -300.671875 380.3359375 C-303.1147079 381.6403919 -305.55740916 382.94509241 -308 384.25 C-308.8923233 384.72660065 -308.8923233 384.72660065 -309.80267334 385.21282959 C-317.34943479 389.246314 -324.84627219 393.35043785 -332.28125 397.5859375 C-336.73233585 400.11014636 -341.26424633 402.40109315 -345.859375 404.6484375 C-350.71433154 407.11907094 -355.47646597 409.75126183 -360.25 412.375 C-388.31961699 427.78325631 -388.31961699 427.78325631 -401.375 426.4375 C-404.57757967 425.28560441 -406.85071186 423.69728414 -409.375 421.4375 C-410.23931641 420.69306641 -410.23931641 420.69306641 -411.12109375 419.93359375 C-415.75966781 415.31726705 -417.306148 409.91819469 -417.375 403.4375 C-416.30993877 397.95298365 -414.58376356 393.26998625 -412 388.3125 C-411.65187256 387.63058594 -411.30374512 386.94867187 -410.94506836 386.24609375 C-407.55706936 379.6679672 -403.99605208 373.1826893 -400.43212891 366.69873047 C-395.83261458 358.32038558 -391.34726969 349.88414587 -386.875 341.4375 C-381.63800194 331.54997863 -376.35679612 321.69124558 -370.97265625 311.8828125 C-366.53290187 303.77334244 -362.20305378 295.6069035 -357.875 287.4375 C-349.63176809 271.88292727 -341.32818286 256.36583125 -332.625 241.0625 C-329.77729244 236.05088664 -327.10380621 230.98598928 -324.5625 225.8125 C-321.00137336 218.56520089 -317.17198393 211.48398632 -313.28540039 204.40673828 C-309.46480381 197.4463382 -305.69217781 190.46178718 -301.94854736 183.45968628 C-301.00075568 181.68891185 -300.05028615 179.91959917 -299.09912109 178.15063477 C-296.20598711 172.76479144 -293.33002267 167.37248095 -290.52832031 161.93838501 C-289.60093907 160.14257903 -288.66662121 158.35056176 -287.72998047 156.55957031 C-286.57066478 154.3382065 -285.42423249 152.11005047 -284.29345703 149.87402344 C-277.77246494 137.46008969 -268.31999629 132.44875875 -256.25 126.25 C-254.80434381 125.49688867 -253.3593633 124.74247901 -251.91503906 123.98681641 C-249.74833292 122.85334185 -247.58130437 121.72056319 -245.41210938 120.59185791 C-239.6090678 117.57179446 -233.85635989 114.46654341 -228.125 111.3125 C-219.98387176 106.84768867 -211.812577 102.44151946 -203.625 98.0625 C-203.03328003 97.74601501 -202.44156006 97.42953003 -201.83190918 97.10345459 C-201.23994751 96.78684875 -200.64798584 96.47024292 -200.03808594 96.14404297 C-198.84309247 95.50489494 -197.64810549 94.8657348 -196.453125 94.2265625 C-195.8613446 93.9100473 -195.26956421 93.5935321 -194.65985107 93.26742554 C-188.55841153 90.00281805 -182.46631813 86.72094154 -176.375 83.4375 C-167.38210115 78.59085555 -158.38151491 73.75879157 -149.375 68.9375 C-136.0296087 61.7931674 -122.70030365 54.61921417 -109.375 47.4375 C-105.08354502 45.12460689 -100.79186681 42.81212882 -96.5 40.5 C-95.44119629 39.92934814 -94.38239258 39.35869629 -93.29150391 38.77075195 C-87.53610757 35.67079078 -81.7755705 32.58078501 -76.0078125 29.50390625 C-73.54669867 28.19043424 -71.08576645 26.87662271 -68.625 25.5625 C-68.02689514 25.24315491 -67.42879028 24.92380981 -66.81256104 24.5947876 C-60.2832458 21.105832 -53.77695376 17.59312892 -47.375 13.875 C-41.49634777 10.46301843 -35.48086476 7.41884638 -29.375 4.4375 C-26.72638751 3.1005469 -24.0794174 1.76043099 -21.43359375 0.41796875 C-14.9491069 -2.67046806 -6.60142601 -2.98787947 0 0 Z M-73.2578125 79.46484375 C-74.07894531 79.91859375 -74.90007812 80.37234375 -75.74609375 80.83984375 C-77.10927734 81.59974609 -77.10927734 81.59974609 -78.5 82.375 C-88.07557439 87.65896433 -97.70871195 92.82207245 -107.375 97.9375 C-116.48587713 102.76296339 -125.58355414 107.60767914 -134.625 112.5625 C-142.68582386 116.97992823 -150.77119231 121.34941831 -158.875 125.6875 C-159.45695129 125.99910065 -160.03890259 126.31070129 -160.63848877 126.63174438 C-167.48548468 130.29698712 -174.33811617 133.95153533 -181.1953125 137.59765625 C-183.79704495 138.98145161 -186.39861037 140.3655603 -189 141.75 C-189.63093567 142.0857605 -190.26187134 142.421521 -190.91192627 142.76745605 C-201.13108551 148.20899394 -211.28913586 153.75224325 -221.375 159.4375 C-220.08201105 162.28124027 -218.72460102 164.33644298 -216.51498413 166.5380249 C-215.93165817 167.12410019 -215.34833221 167.71017548 -214.74732971 168.31401062 C-213.7903141 169.2602404 -213.7903141 169.2602404 -212.81396484 170.22558594 C-212.14067642 170.89916641 -211.467388 171.57274689 -210.7736969 172.26673889 C-208.54915197 174.48989154 -206.31760871 176.70587793 -204.0859375 178.921875 C-202.54136338 180.46271865 -200.99723049 182.00400472 -199.45352173 183.54571533 C-195.39071302 187.60089037 -191.32193378 191.65002324 -187.25189209 195.69793701 C-183.09920894 199.83015611 -178.95218656 203.96804757 -174.8046875 208.10546875 C-166.66699602 216.22171499 -158.52298731 224.33159083 -150.375 232.4375 C-147.68118986 228.94559961 -145.59885139 225.28594006 -143.56640625 221.3828125 C-143.20388763 220.69386902 -142.84136902 220.00492554 -142.46786499 219.29510498 C-141.69163511 217.81938545 -140.91689947 216.34287914 -140.14352417 214.86566162 C-138.10580096 210.97419245 -136.05659159 207.08878172 -134.0078125 203.203125 C-133.40080757 202.05111099 -133.40080757 202.05111099 -132.78153992 200.87582397 C-129.67768272 194.99224819 -126.51833414 189.14118583 -123.3125 183.3125 C-118.41468114 174.3987625 -113.6357379 165.42489067 -108.875 156.4375 C-103.59245196 146.4661995 -98.27095623 136.5201197 -92.84521484 126.62573242 C-88.04485654 117.8624025 -83.3326004 109.05236835 -78.62451172 100.23925781 C-78.02912598 99.12518555 -77.43374023 98.01111328 -76.8203125 96.86328125 C-75.96034668 95.25187256 -75.96034668 95.25187256 -75.08300781 93.60791016 C-72.90900878 89.57252545 -70.680509 85.56816888 -68.43701172 81.57104492 C-67.22646173 79.53630015 -67.22646173 79.53630015 -67.375 77.4375 C-69.90148385 77.4375 -71.0504781 78.23399468 -73.2578125 79.46484375 Z "
          fill="#000000" transform="translate(586.375,171.5625)"/>
</svg>
