<?xml version="1.0" standalone="no"?>
<!DOCTYPE svg PUBLIC "-//W3C//DTD SVG 20010904//EN"
 "http://www.w3.org/TR/2001/REC-SVG-20010904/DTD/svg10.dtd">
<svg version="1.0" xmlns="http://www.w3.org/2000/svg"
 width="768.000000pt" height="768.000000pt" viewBox="0 0 768.000000 768.000000"
 preserveAspectRatio="xMidYMid meet">

<g transform="translate(0.000000,768.000000) scale(0.100000,-0.100000)"
fill="#000000" stroke="none">
<path d="M3605 7673 c-809 -65 -1460 -306 -2080 -771 -774 -581 -1319 -1475
-1474 -2417 -42 -254 -46 -308 -46 -610 0 -316 9 -434 51 -683 267 -1594 1532
-2861 3129 -3136 249 -42 354 -50 650 -50 292 0 396 8 645 49 1351 227 2488
1174 2966 2470 129 350 211 756 229 1140 8 153 -7 474 -31 655 -163 1280 -945
2381 -2102 2959 -538 268 -1129 405 -1726 399 -94 -1 -189 -3 -211 -5z m2243
-1709 c83 -34 132 -110 132 -204 0 -49 -6 -73 -34 -128 -19 -37 -327 -614
-685 -1282 -407 -758 -664 -1227 -684 -1247 -18 -17 -178 -110 -357 -206 -773
-415 -1681 -903 -1750 -940 -41 -22 -97 -52 -125 -67 -165 -91 -315 -168 -344
-178 -52 -18 -136 -15 -179 7 -46 24 -97 77 -112 116 -7 17 -12 56 -12 87 0
45 7 71 35 126 27 52 656 1225 862 1607 68 126 257 479 365 680 62 116 126
224 144 242 19 19 400 229 966 533 514 276 1027 552 1140 613 113 60 234 126
270 145 36 19 85 46 110 60 98 54 186 66 258 36z"/>
<path d="M4415 4784 c-423 -228 -772 -417 -774 -420 -6 -5 710 -724 720 -724
7 0 839 1542 839 1554 0 3 -3 6 -7 5 -5 0 -354 -187 -778 -415z"/>
</g>
</svg>
