<?xml version="1.0" standalone="no"?>
<!DOCTYPE svg PUBLIC "-//W3C//DTD SVG 20010904//EN"
 "http://www.w3.org/TR/2001/REC-SVG-20010904/DTD/svg10.dtd">
<svg version="1.0" xmlns="http://www.w3.org/2000/svg"
 width="464.000000pt" height="512.000000pt" viewBox="0 0 464.000000 512.000000"
 preserveAspectRatio="xMidYMid meet">

<g transform="translate(0.000000,512.000000) scale(0.100000,-0.100000)"
fill="#000000" stroke="none">
<path d="M2263 5107 c-48 -18 -2223 -1697 -2245 -1732 -17 -29 -18 -98 -18
-1646 l0 -1616 23 -33 c12 -19 38 -43 57 -54 34 -21 46 -21 795 -21 859 0 792
-6 886 82 33 30 55 63 69 99 19 53 20 75 20 835 0 868 0 865 66 976 93 155
231 234 409 235 222 0 403 -141 460 -359 13 -48 15 -178 15 -838 0 -664 2
-789 15 -832 19 -63 81 -135 149 -171 l51 -27 755 0 c744 0 756 0 790 21 19
11 45 35 57 54 l23 33 0 1616 c0 1549 -1 1617 -18 1646 -15 24 -2111 1652
-2212 1717 -35 23 -107 31 -147 15z m1052 -1151 l985 -759 0 -1423 0 -1424
-575 0 -574 0 -3 773 c-4 874 1 819 -88 1002 -27 55 -72 129 -101 163 -105
126 -271 231 -434 273 -111 28 -290 28 -399 -1 -325 -84 -569 -355 -616 -685
-6 -41 -10 -368 -10 -797 l0 -728 -580 0 -580 0 0 1424 0 1423 988 762 c543
418 991 760 995 758 4 -1 451 -344 992 -761z"/>
</g>
</svg>
