<?xml version="1.0" standalone="no"?>
<!DOCTYPE svg PUBLIC "-//W3C//DTD SVG 20010904//EN"
 "http://www.w3.org/TR/2001/REC-SVG-20010904/DTD/svg10.dtd">
<svg version="1.0" xmlns="http://www.w3.org/2000/svg"
 width="510.000000pt" height="550.000000pt" viewBox="0 0 510.000000 550.000000"
 preserveAspectRatio="xMidYMid meet">

<g transform="translate(0.000000,550.000000) scale(0.100000,-0.100000)"
fill="#000000" stroke="none">
<path d="M1256 4238 l-1257 -1253 1 -1462 0 -1462 24 -28 24 -28 876 0 875 0
23 23 23 23 5 892 5 892 24 65 c59 166 163 302 297 390 286 187 684 129 905
-133 71 -85 134 -207 154 -303 12 -57 15 -213 15 -917 0 -924 -1 -902 56 -925
22 -9 242 -12 887 -10 l859 3 24 28 24 28 0 1462 0 1461 -242 244 c-134 134
-700 698 -1259 1253 -962 954 -1019 1009 -1052 1009 -33 0 -100 -65 -1291
-1252z"/>
</g>
</svg>
