<?xml version="1.0" standalone="no"?>
<!DOCTYPE svg PUBLIC "-//W3C//DTD SVG 20010904//EN"
 "http://www.w3.org/TR/2001/REC-SVG-20010904/DTD/svg10.dtd">
<svg version="1.0" xmlns="http://www.w3.org/2000/svg"
 width="255.000000pt" height="265.000000pt" viewBox="0 0 255.000000 265.000000"
 preserveAspectRatio="xMidYMid meet">

<g transform="translate(0.000000,265.000000) scale(0.100000,-0.100000)"
fill="#000000" stroke="none">
<path d="M1130 2640 c-565 -72 -1008 -495 -1105 -1054 -19 -114 -19 -308 0
-422 44 -255 167 -497 341 -674 l64 -66 0 -200 c0 -142 3 -203 12 -212 27 -27
73 -11 234 78 l161 90 41 -14 c183 -65 461 -80 662 -37 477 102 850 459 972
928 40 156 50 367 23 524 -88 528 -488 940 -1015 1044 -93 18 -303 27 -390 15z
m385 -134 c220 -48 402 -145 562 -299 234 -225 356 -509 356 -832 0 -323 -122
-607 -356 -832 -235 -226 -525 -335 -851 -320 -124 6 -293 39 -346 67 -37 20
-74 9 -196 -60 -69 -38 -130 -70 -135 -70 -5 0 -9 70 -9 162 l0 161 -88 91
c-217 225 -325 493 -325 801 1 325 123 610 360 836 44 42 106 94 139 116 124
85 303 159 439 182 33 6 71 13 85 15 52 9 298 -3 365 -18z"/>
<path d="M963 1705 c-62 -28 -60 -25 -272 -397 -133 -232 -151 -269 -141 -287
20 -38 56 -25 255 98 208 129 247 151 266 151 7 0 80 -67 164 -150 88 -87 167
-156 188 -165 81 -34 192 -8 239 56 22 30 308 531 352 617 20 40 8 72 -29 72
-13 0 -114 -57 -230 -130 -113 -71 -216 -130 -229 -130 -13 0 -95 54 -202 134
-226 169 -257 180 -361 131z"/>
</g>
</svg>
