<?xml version="1.0" standalone="no"?>
<!DOCTYPE svg PUBLIC "-//W3C//DTD SVG 20010904//EN"
 "http://www.w3.org/TR/2001/REC-SVG-20010904/DTD/svg10.dtd">
<svg version="1.0" xmlns="http://www.w3.org/2000/svg"
 width="255.000000pt" height="265.000000pt" viewBox="0 0 255.000000 265.000000"
 preserveAspectRatio="xMidYMid meet">

<g transform="translate(0.000000,265.000000) scale(0.100000,-0.100000)"
fill="#000000" stroke="none">
<path d="M1095 2640 c-217 -35 -429 -127 -613 -267 -171 -132 -326 -350 -406
-571 -95 -265 -94 -597 3 -861 64 -172 151 -315 275 -447 l66 -72 0 -199 c0
-141 3 -202 12 -211 7 -7 31 -12 53 -12 34 0 71 16 196 86 l153 86 71 -20
c144 -41 188 -47 375 -47 170 0 194 3 300 29 241 60 431 167 601 336 185 184
304 410 354 675 23 117 20 363 -5 486 -74 361 -312 686 -630 859 -105 57 -234
107 -337 131 -101 23 -370 34 -468 19z m38 -926 c18 -9 109 -74 203 -145 94
-71 179 -129 189 -129 10 0 106 56 214 123 254 160 237 152 267 132 13 -8 24
-23 24 -32 0 -24 -340 -622 -378 -665 -32 -35 -102 -68 -146 -68 -69 0 -100
21 -257 176 -119 117 -162 154 -181 154 -15 0 -90 -39 -174 -91 -82 -50 -182
-112 -222 -136 -81 -50 -117 -52 -128 -8 -5 20 12 57 78 173 47 81 122 212
168 292 46 80 95 158 109 174 55 61 166 84 234 50z"/>
</g>
</svg>
