<?xml version="1.0" standalone="no"?>
<!DOCTYPE svg PUBLIC "-//W3C//DTD SVG 20010904//EN"
 "http://www.w3.org/TR/2001/REC-SVG-20010904/DTD/svg10.dtd">
<svg version="1.0" xmlns="http://www.w3.org/2000/svg"
 width="2083.000000pt" height="2083.000000pt" viewBox="0 0 2083.000000 2083.000000"
 preserveAspectRatio="xMidYMid meet">

<g transform="translate(0.000000,2083.000000) scale(0.100000,-0.100000)"
fill="#000000" stroke="none">
<path d="M5743 20818 c3 -7 784 -1347 1735 -2978 l1730 -2965 2661 -3 2660 -2
-72 124 c-40 68 -821 1408 -1737 2979 l-1665 2856 -2659 1 c-2123 0 -2657 -3
-2653 -12z"/>
<path d="M12190 20823 c0 -5 780 -1344 1733 -2978 l1733 -2970 2587 -3 2587
-2 0 467 c0 572 -18 767 -105 1178 -149 695 -446 1382 -848 1962 -336 483
-762 924 -1232 1273 -864 644 -1865 1005 -2960 1070 -198 11 -3495 14 -3495 3z"/>
<path d="M4455 20734 c-831 -159 -1577 -483 -2239 -972 -1028 -761 -1753
-1849 -2057 -3087 -116 -477 -159 -874 -159 -1487 l0 -318 4041 0 c2268 0
4038 4 4035 9 -3 4 -775 1329 -1716 2942 -1700 2917 -1710 2934 -1743 2936
-17 1 -90 -9 -162 -23z"/>
<path d="M0 9598 c0 -4160 2 -4449 31 -4723 113 -1086 542 -2098 1250 -2945
135 -162 428 -460 590 -601 702 -610 1541 -1031 2444 -1224 186 -39 446 -79
625 -95 90 -8 1641 -10 5560 -8 l5435 3 155 23 c887 127 1620 403 2330 877
320 214 545 399 830 685 441 441 782 920 1051 1474 257 533 411 1046 501 1676
l22 155 3 4493 3 4492 -10415 0 -10415 0 0 -4282z m9178 1266 c53 -13 128 -39
167 -57 104 -50 4026 -2279 4122 -2343 45 -30 119 -94 165 -143 401 -423 317
-1117 -174 -1434 -46 -30 -985 -566 -2088 -1193 -1362 -773 -2033 -1149 -2092
-1171 -179 -68 -391 -80 -578 -33 -106 27 -284 112 -370 178 -171 129 -295
314 -352 523 l-23 84 0 2410 0 2410 28 90 c106 342 363 588 707 679 157 42
326 42 488 0z"/>
</g>
</svg>
