<?xml version="1.0" standalone="no"?>
<!DOCTYPE svg PUBLIC "-//W3C//DTD SVG 20010904//EN"
 "http://www.w3.org/TR/2001/REC-SVG-20010904/DTD/svg10.dtd">
<svg version="1.0" xmlns="http://www.w3.org/2000/svg"
 width="298.000000pt" height="300.000000pt" viewBox="0 0 298.000000 300.000000"
 preserveAspectRatio="xMidYMid meet">

<g transform="translate(0.000000,300.000000) scale(0.100000,-0.100000)"
fill="#000000" stroke="none">
<path d="M705 2985 c-201 -38 -383 -146 -512 -305 -65 -80 -135 -218 -165
-325 -23 -80 -23 -83 -23 -840 0 -700 1 -766 18 -837 78 -333 322 -577 654
-655 72 -17 136 -18 813 -18 677 0 741 1 813 18 322 76 561 308 650 632 22 79
22 88 22 850 0 768 0 770 -23 850 -69 248 -234 448 -457 555 -184 89 -131 84
-975 86 -584 2 -760 0 -815 -11z m1109 -454 c86 -142 159 -266 162 -275 6 -15
-26 -16 -347 -16 l-354 0 -162 269 c-90 147 -163 271 -163 275 0 3 159 6 354
6 l355 0 155 -259z m433 243 c176 -36 320 -136 419 -289 36 -57 76 -155 87
-212 l7 -33 -263 0 -262 0 -160 266 c-88 147 -161 271 -163 275 -6 16 254 10
335 -7z m-1387 -256 c84 -138 154 -257 157 -265 4 -11 -66 -13 -397 -13 -377
0 -401 1 -396 18 3 9 10 37 16 62 49 186 213 362 402 430 29 11 56 19 60 20 3
0 75 -113 158 -252z m1905 -1123 c0 -579 -2 -635 -18 -694 -54 -192 -184 -345
-359 -425 -136 -62 -115 -61 -898 -61 -655 0 -720 1 -780 18 -197 54 -349 179
-432 354 -63 133 -61 111 -65 791 -3 343 -2 630 1 638 5 12 188 14 1278 12
l1273 -3 0 -630z"/>
<path d="M1155 1671 c-11 -5 -29 -19 -40 -31 -19 -21 -20 -38 -23 -444 -2
-284 0 -433 8 -458 11 -40 49 -68 92 -68 28 0 694 391 726 426 13 16 22 38 22
59 0 21 -8 43 -22 59 -33 36 -685 456 -716 461 -15 3 -36 1 -47 -4z"/>
</g>
</svg>
