<?xml version="1.0" standalone="no"?>
<!DOCTYPE svg PUBLIC "-//W3C//DTD SVG 20010904//EN"
 "http://www.w3.org/TR/2001/REC-SVG-20010904/DTD/svg10.dtd">
<svg version="1.0" xmlns="http://www.w3.org/2000/svg"
 width="512.000000pt" height="512.000000pt" viewBox="0 0 512.000000 512.000000"
 preserveAspectRatio="xMidYMid meet">

<g transform="translate(0.000000,512.000000) scale(0.100000,-0.100000)"
fill="#000000" stroke="none">
<path d="M1871 5109 c-376 -40 -761 -195 -1061 -428 -775 -601 -1029 -1671
-606 -2556 74 -154 125 -238 216 -360 282 -374 693 -645 1150 -759 486 -120
994 -67 1436 149 133 66 291 164 377 237 l49 41 701 -701 c490 -489 713 -706
739 -717 47 -19 89 -19 135 0 50 21 72 42 94 90 23 49 24 94 4 143 -11 26
-228 249 -717 738 l-701 702 46 57 c213 260 367 620 423 986 24 155 24 451 0
609 -35 229 -90 407 -191 615 -310 647 -935 1080 -1664 1154 -119 13 -309 12
-430 0z m447 -360 c358 -40 681 -207 983 -508 271 -271 436 -569 495 -896 25
-138 30 -416 10 -553 -56 -380 -222 -714 -487 -981 -251 -251 -550 -412 -901
-483 -151 -31 -487 -33 -643 -5 -131 24 -284 76 -407 137 -448 224 -837 679
-954 1115 -75 282 -75 633 2 914 131 483 470 887 926 1106 306 147 611 195
976 154z"/>
</g>
</svg>
