<svg width="28" height="28" viewBox="0 0 24 24" xmlns="http://www.w3.org/2000/svg" fill="none">

 <g>
  <title>Layer 1</title>
  <g stroke-width="0" id="SVGRepo_bgCarrier"/>
  <g stroke-width="0.528" stroke="#CCCCCC" stroke-linejoin="round" stroke-linecap="round" id="SVGRepo_tracerCarrier"/>
  <g id="SVGRepo_iconCarrier">
   <path id="svg_1" stroke-linejoin="round" stroke-width="2" stroke="#000000" d="m5,6.2c0,-1.12011 0,-1.68016 0.21799,-2.10798c0.19174,-0.37633 0.4977,-0.68229 0.87403,-0.87403c0.42782,-0.21799 0.98787,-0.21799 2.10798,-0.21799l7.6,0c1.1201,0 1.6802,0 2.108,0.21799c0.3763,0.19174 0.6823,0.4977 0.874,0.87403c0.218,0.42782 0.218,0.98787 0.218,2.10798l0,14.8l-7,-5l-7,5l0,-14.8z"/>
  </g>
  <path d="m6.42638,4.58151c0.09289,0 0.09289,0.09289 0.09289,0.18579c0,0.09289 0.01924,0.213 -0.04645,0.27868c-0.03284,0.03284 -0.04645,0.09289 -0.04645,0.18579c0,0.18579 0,0.37157 0,0.46447c0,0.09289 0,0.18579 0,0.27868c0,0.18579 -0.04645,0.37157 -0.04645,0.46447c0,0 0.06569,0.1201 0,0.18579c-0.03284,0.03284 -0.09289,0.18579 -0.09289,0.18579c0,0.09289 -0.04269,0.09786 0,0.27868c0.02386,0.10108 0.04645,0.18579 0.04645,0.37157c0,0.09289 0.09289,0.37157 0.09289,0.74315c0,0.09289 0,0.37157 0.04645,0.46447c0.04645,0.09289 0.0233,0.2758 0,0.55736c-0.01532,0.18515 0,0.37157 0,0.65026c0,0.18579 -0.02314,0.36869 -0.04645,0.65026c-0.00766,0.09258 -0.07511,0.45272 -0.13934,0.65026c-0.08737,0.26868 -0.04645,0.55736 -0.04645,0.74315c0,0.18579 0,0.37157 0,0.55736c0,0.18579 0.00766,0.37189 0,0.46447c-0.0233,0.28156 -0.04645,0.65026 -0.04645,0.83604c0,0.09289 -0.02305,0.36729 -0.04645,0.55736c-0.0227,0.18439 -0.06903,0.45628 -0.09289,0.55736c-0.06403,0.27123 -0.04645,0.46447 -0.13934,0.65026c-0.09289,0.18579 0.03848,0.42599 -0.09289,0.55736c-0.03284,0.03284 -0.04645,-0.13934 -0.04645,-0.27868c0,-0.46447 -0.05312,-0.97741 0,-1.67209c0.04658,-0.60913 0.09289,-1.25406 0.09289,-1.95077c0,-0.27868 -0.00887,-0.50881 -0.09289,-0.88249c-0.05196,-0.23106 -0.13849,-0.3582 -0.18579,-0.60381c-0.03513,-0.18244 0.02288,-0.41915 0,-0.65026c-0.02334,-0.23568 -0.04645,-0.6967 -0.04645,-1.16117c0,-0.27868 0,-0.60381 0,-0.74315c0,-0.23223 -0.00816,-0.41347 0.04645,-0.32513c0.19535,0.31608 0.18408,0.6235 0.27868,1.11472c0.03513,0.18244 0,0.27868 0,0.27868c0,0.18579 0.06433,0.29596 0.18579,0.46447c0.15363,0.21315 0.18579,0.55736 0.18579,1.3934c0,0.65026 0,1.11472 0,1.3934c0,0.46447 0,0.65026 0,0.92894c0,0.27868 0,0.46447 0,0.74315c0,0.18579 0,0.27868 0,0.46447c0,0.18579 0,0.37158 0,0.55736c0,0.09289 -0.04645,0.27868 -0.04645,0.46447c0,0.18579 0,0.46447 0,0.55736c0,0.18579 -0.02305,0.2744 -0.04645,0.46447c-0.0227,0.18439 0,0.37157 0,0.46447c0,0.09289 0,0.18579 0,0.27868c0,0.09289 0,0.18579 0,0.27868c0,0.09289 0,0.09289 0,0.18579c0,0.09289 0,0.09289 0,0.18579c0,0.09289 0,0.18579 0,0.18579c0,0 0,0.09289 0,0.18579c0,0 0,0.09289 0,0.09289c-0.09289,0.09289 -0.09289,0.18579 -0.09289,0.18579c-0.04645,0.09289 -0.02514,0.01424 0,-0.04645c0.01778,-0.04291 0.09289,-0.13934 0.18579,-0.23223c0.09289,-0.09289 0.06847,-0.14628 0.09289,-0.18579c0.0546,-0.08835 0.13119,-0.05099 0.18579,-0.13934c0.02442,-0.03951 0.03829,-0.09744 0.09289,-0.18579c0.02442,-0.03951 0.07921,-0.06253 0.18579,-0.13934c0.08425,-0.06073 0.13119,-0.05099 0.18579,-0.13934c0.02442,-0.03951 0.00185,-0.08899 -0.09289,-0.04645c-0.22817,0.10246 -0.5683,0.26641 -0.88249,0.55736c-0.19278,0.17852 -0.25734,0.37406 -0.27868,0.46447c-0.02386,0.10108 -0.00383,0.06441 0.04645,0.18579c0.03555,0.08582 0,0.18579 0.09289,0.18579c0,0 0.20524,0.02699 0.27868,-0.04645c0.14688,-0.14688 0.13119,-0.23678 0.18579,-0.32513c0.04884,-0.07902 0.09289,-0.13934 0.18579,-0.23223c0.09289,-0.09289 0.09289,-0.18579 0.18579,-0.27868c0.09289,-0.09289 0.15313,-0.2143 0.27868,-0.32513c0.07786,-0.06873 0.10153,-0.07861 0.18579,-0.13934c0.10657,-0.07681 0.09289,-0.13934 0.18579,-0.18579c0.09289,-0.04645 0.18579,-0.13934 0.18579,-0.18579c0,-0.18579 0.15887,-0.32911 0.18579,-0.41802c0.04853,-0.16028 0.16801,-0.28222 0.18579,-0.32513c0.05027,-0.12137 0.22408,-0.14389 0.27868,-0.23223c0.02442,-0.03951 0.07921,-0.15542 0.18579,-0.23223c0.08425,-0.06073 0.23917,-0.16137 0.27868,-0.18579c0.08835,-0.0546 0.11055,0.33438 -0.13934,0.7896c-0.26065,0.47482 -0.68103,0.85653 -1.16117,1.20762c-0.40555,0.29654 -0.64642,0.41786 -0.65026,0.37157c-0.0233,-0.28156 0.44948,-0.10873 0.74315,-0.37157c0.44321,-0.39669 0.72987,-0.66009 0.83604,-0.78959c0.16658,-0.20319 0.37157,-0.41802 0.55736,-0.51092c0.18579,-0.09289 0.44455,-0.35669 0.65026,-0.46447c0.2602,-0.13633 0.48361,-0.23077 0.65026,-0.32513c0.11432,-0.06473 0.15294,-0.15294 0.18579,-0.18579c0.06569,-0.06569 0.09289,-0.04645 0.18579,-0.09289c0.09289,-0.04645 0.19539,-0.08419 0.27868,-0.18579c0.10617,-0.12951 0.27868,-0.23223 0.37157,-0.27868c0.09289,-0.04645 0.09289,-0.09289 0.18579,-0.13934c0.09289,-0.04645 0.18579,-0.04645 0.27868,-0.04645c0.09289,0 0.27281,-0.06078 0.37157,-0.09289c0.26868,-0.08737 0.37157,-0.04645 0.46447,-0.04645c0.09289,0 0.09289,0 0.18579,0c0.09289,0 0.09997,-0.03555 0.18579,0c0.12137,0.05027 0.18579,0.09289 0.27868,0.09289c0.09289,0 0.09997,0.05734 0.18579,0.09289c0.12137,0.05027 0.09997,0.15024 0.18579,0.18579c0.12137,0.05027 0.09289,0.18579 0.18579,0.27868c0,0 0.02721,0.02721 0.09289,0.09289c0.06569,0.06569 -0.01797,0.05027 -0.13934,0c-0.17165,-0.0711 -0.31694,-0.06903 -0.41802,-0.09289c-0.0452,-0.01067 -0.18932,-0.02867 -0.23223,-0.04645c-0.06069,-0.02514 -0.21446,-0.18225 -0.23223,-0.13934c-0.05027,0.12137 0.22763,0.04185 0.46447,0.27868c0.23683,0.23683 0.41419,0.3431 0.46447,0.46447c0.0711,0.17164 0.09289,0.27868 0.09289,0.27868c0,0.09289 0.06442,0.13551 0.18579,0.18579c0.08582,0.03555 0.18579,0.09289 0.27868,0.09289c0,0 0.15731,0.04262 0.27868,0.09289c0.08582,0.03555 0.15731,0.04262 0.27868,0.09289c0.08582,0.03555 0.15731,0.04262 0.27868,0.09289c0.08582,0.03555 0.19286,0.05734 0.27868,0.09289c0.12137,0.05027 0.20187,0.07921 0.27868,0.18579c0.12145,0.16851 0.31759,0.2247 0.46447,0.37157c0.14688,0.14688 0.27868,0.37157 0.46447,0.46447c0.18579,0.09289 0.27868,0.18579 0.27868,0.18579c0.09289,0.09289 0.15731,0.13551 0.27868,0.18579c0.08582,0.03555 0.213,-0.06569 0.27868,0c0.06569,0.06569 0.05734,0.09996 0.09289,0.18579c0.05027,0.12137 0.06442,0.22841 0.18579,0.27868c0.08582,0.03555 0.09289,0.09289 0.09289,0.04645c0,-0.09289 0,-0.32513 0,-0.60381c0,-0.13934 -0.09289,-0.32513 -0.13934,-0.46447c-0.04645,-0.13934 -0.15611,-0.33173 -0.23223,-0.60381c-0.0674,-0.24087 -0.15994,-0.4357 -0.23223,-0.6967c-0.0248,-0.08952 -0.02311,-0.27523 -0.04645,-0.51091c-0.01373,-0.13866 0,-0.32513 0,-0.46447c0,-0.18579 0,-0.51092 0,-0.83604c0,-0.23223 -0.03284,-0.29228 0,-0.32513c0.06569,-0.06569 0.34411,0.09425 0.37157,0.37157c0.04667,0.47136 0.23188,1.29195 0.27868,1.67209c0.03405,0.27659 0,0.37157 0,0.46447c0,0.27868 0,0.37157 0,0.55736c0,0.09289 0.01921,0.16838 0.18579,0.37157c0.21235,0.25902 0.18579,0.46447 0.27868,0.65026c0.09289,0.18579 0.09289,0.18579 0.04645,0.27868c0,0 0.0419,0.13119 -0.04645,0.18579c-0.03951,0.02442 -0.09289,0 -0.13934,0c-0.09289,0 -0.09289,0.09289 -0.13934,0.09289c-0.04645,0 -0.08722,-0.00035 -0.09289,-0.04645c-0.0234,-0.19007 -0.04645,-0.37157 -0.04645,-0.65026c0,-0.27868 0,-0.6967 0,-1.16117c0,-0.65026 0,-1.11472 0,-1.57919c0,-0.32513 0,-0.7896 0,-1.11472c0,-0.32513 0,-0.6967 0,-0.92894c0,-0.27868 -0.02318,-0.55519 -0.04645,-0.92894c-0.01155,-0.18543 0,-0.37157 0,-0.60381c0,-0.18579 0,-0.32513 0,-0.46447c0,-0.18579 0,-0.60381 0,-0.7896c0,-0.23223 0,-0.37157 0,-0.60381c0,-0.23223 0,-0.46447 0,-0.88249c0,-0.37157 -0.06403,-0.61126 0,-0.88249c0.04772,-0.20216 0.18579,-0.55736 0.18579,-0.88249c0,-0.09289 0.08873,-0.2368 0.18579,-0.55736c0.05384,-0.17782 0,-0.32513 0,-0.51092c0,-0.18579 0,-0.37157 0,-0.60381c0,-0.18579 0,-0.27868 0,-0.55736c0,-0.18579 0,-0.37157 0,-0.55736c0,-0.09289 0.01777,-0.23577 0,-0.27868c-0.02514,-0.06069 -0.09289,-0.04645 -0.23223,-0.04645c-0.04645,0 -0.18579,0 -0.27868,0c-0.04645,0 -0.13934,0 -0.23223,0c-0.18579,0 -0.51091,0 -0.60381,0c-0.04645,0 -0.15731,0.08907 -0.27868,0.13934c-0.08582,0.03555 -0.23223,0 -0.41802,0c-0.09289,0 -0.27868,0 -0.46447,0c-0.13934,0 -0.46747,-0.0372 -0.6967,0c-0.28996,0.04705 -0.37157,0.09289 -0.51091,0.09289c-0.18579,0 -0.32513,0 -0.51091,0c-0.27868,0 -0.60381,0 -0.6967,0c-0.18579,0 -0.23223,0 -0.27868,0c-0.18579,0 -0.37157,0 -0.60381,0c-0.23223,0 -0.46447,0 -0.65026,0c-0.13934,0 -0.37157,0 -0.60381,0c-0.32513,0 -0.65026,0 -1.06828,0c-0.27868,0 -0.51092,0 -0.7896,0c-0.32513,0 -0.46447,0 -0.60381,0c-0.04645,0 -0.09289,0 -0.18579,0c-0.13934,0 -0.32084,-0.06949 -0.51091,-0.09289c-0.0461,-0.00567 -0.18579,0 -0.27868,0c-0.18579,0 -0.37157,0 -0.46447,0c-0.13934,0 -0.18703,0.01067 -0.23223,0c-0.10108,-0.02386 -0.12574,-0.1065 -0.09289,-0.13934c0.03284,-0.03284 0.41802,0.04645 0.6967,0.04645c0.18579,0 0.27868,0 0.27868,0c0.09289,0.09289 0.20307,0.06433 0.37157,0.18579c0.10657,0.07681 0.42259,0.18162 0.74315,0.27868c0.26672,0.08076 0.65026,0 1.11472,0c0.37157,0 0.62178,0.04262 0.74315,0.09289c0.17165,0.0711 0.46447,0 0.65026,0c0.09289,0 0.37157,0 1.11472,0c0.65026,0 1.3934,0 2.13655,0c0.55736,0 1.19905,0.0461 1.57919,0.09289c0.0922,0.01135 0.18579,0 0.18579,0c0.27868,-0.09289 0.48175,-0.25012 0.65026,-0.37157c0.10657,-0.07681 0.27868,-0.09289 0.27868,-0.09289c0.09289,0 0.09538,-0.0251 0.18579,-0.04645c0.10108,-0.02386 0.15723,-0.12206 0.27868,0.04645c0.07681,0.10657 0.13899,0.36301 0.18579,0.74315c0.05675,0.46099 0,0.92894 0,1.20762c0,0.27868 0.0461,0.4559 0.09289,0.83604c0.0227,0.1844 0,0.27868 0,0.37157c0,0.09289 0.09289,0.18579 0.09289,0.37157c0,0.27868 -0.00799,0.49051 -0.04645,0.46447c-0.20712,-0.14023 -0.09508,-0.65684 -0.18579,-1.11472c-0.09423,-0.47568 -0.19662,-0.78648 -0.32513,-1.25406c-0.05075,-0.18466 0,-0.41802 -0.04645,-0.41802c-0.09289,0 0.04645,0.18579 0.13934,0.37157c0.18579,0.37158 0.27868,0.55736 0.27868,0.74315c0,0 0.04584,0.2674 0.09289,0.55736c0.01488,0.09169 -0.04075,0.20273 -0.37158,-0.65026c-0.15933,-0.41082 -0.15741,-0.83778 -0.18579,-1.06828c-0.0234,-0.19007 -0.03058,-0.29945 -0.09289,-0.27868c-0.31157,0.10386 -0.06083,0.80604 0.09289,1.25406c0.13482,0.39295 0,0.83604 0.18579,0.83604c0.55736,0 -0.29289,-0.973 -0.37157,-1.4863c-0.05674,-0.37014 -0.09284,-0.6017 -0.04645,-0.60381c0.5125,-0.02325 0.29805,1.07216 0.41802,1.81143c0.07587,0.46755 0.18579,1.11472 0.18579,1.76498c0,0.18579 0.05649,0.27581 0,-0.27868c-0.16341,-1.60401 -0.50837,-2.50839 -0.55736,-2.9726c-0.04415,-0.41827 -0.07337,-0.75043 -0.18579,-1.02183c-0.07949,-0.19191 -0.13934,-0.23223 -0.13934,0.09289c0,0.27868 0.06957,0.64467 0.13934,1.95077c0.03469,0.64933 -0.19706,1.38213 0,1.57919c0.06569,0.06569 0.119,-0.05509 -0.04645,-0.51091c-0.24137,-0.66501 -0.51064,-1.24642 -0.55736,-1.67209c-0.02534,-0.23085 0.07129,-0.31069 0.13934,-0.23223c0.19247,0.22192 0.37157,1.11472 0.37157,1.20762c0,0.09289 0.13925,1.11039 0.18579,1.85787c0.03463,0.55628 0,1.11472 0,1.11472c0,-0.37157 -0.22037,-1.62186 -0.32513,-2.74036c-0.06944,-0.74135 0.01507,-1.31912 -0.13934,-1.71853c-0.13503,-0.34927 -0.24499,-0.41786 -0.23223,0.09289c0.02323,0.92981 0.18577,1.85583 0.23223,3.43706c0.03547,1.2071 -0.02484,2.23536 0.18579,3.06549c0.16632,0.65551 0.22376,1.11744 0.27868,1.67208c0.04667,0.47136 0.09289,0.83604 0.09289,0.92894c0,0 -0.03775,-0.04658 -0.04645,-0.32513c-0.02324,-0.74424 -0.20612,-1.66934 -0.37157,-2.9726c-0.15891,-1.25173 -0.48057,-2.1104 -0.6967,-3.25128c-0.09549,-0.50406 0.0929,-0.92894 -0.04645,-0.92894c-0.04645,0 -0.00533,0.41837 0.04645,1.16117c0.08422,1.20825 0.27868,2.13655 0.27868,2.78681c0,1.3934 0.0461,1.9422 0.09289,2.32234c0.05675,0.46099 0.0419,0.68855 -0.04645,0.74315c-0.03951,0.02442 -0.11548,-0.00819 -0.13934,0.09289c-0.02134,0.09041 0.01154,0.27904 0,0.46447c-0.02327,0.37374 -0.09289,0.65026 -0.09289,0.65026c0,0.18579 0.09289,0.44254 0.09289,0.65026c0,0.10386 -0.06073,0.19443 0,0.27868c0.07681,0.10658 0.06598,0.18977 0.09289,0.27868c0.09706,0.32056 0.27868,0.46447 0.27868,0.46447c0.18579,0.27868 0.27868,0.37157 0.37157,0.46447c0,0 0.10665,0.07168 0,-0.18579c-0.10055,-0.24274 -0.26801,-0.27992 -0.27868,-0.32513c-0.02386,-0.10108 -0.09289,-0.13934 -0.09289,-0.18579c0,-0.09289 0,-0.13934 -0.09289,-0.23223c-0.04645,-0.04645 -0.08739,-0.14818 -0.23223,-0.23223c-0.08983,-0.05213 -0.23462,-0.03176 -0.27868,-0.04645c-0.22032,-0.07344 -0.36107,-0.31747 -0.60381,-0.41802c-0.12873,-0.05332 -0.36255,-0.11372 -0.55736,-0.18579c-0.17961,-0.06644 -0.46447,-0.09289 -0.55736,-0.18579c-0.09289,-0.09289 -0.23223,-0.27868 -0.27868,-0.32513c-0.09289,-0.09289 -0.18579,-0.18579 -0.23223,-0.18579c-0.04645,0 -0.09289,0 -0.23223,0c-0.13934,0 -0.27868,0 -0.46447,0c-0.23223,0 -0.46447,0 -0.6967,0c-0.32513,0 -0.51091,0 -0.83604,0c-0.37157,0 -0.83604,0 -1.25406,0c-0.46447,0 -0.97538,0 -1.43985,0c-0.46447,0 -0.74489,-0.02837 -0.97538,0c-0.38014,0.0468 -0.51091,0.09289 -0.83604,0.09289c-0.23223,0 -0.3753,-0.03201 -0.51092,0c-0.20216,0.04772 -0.43599,0.13551 -0.55736,0.18579c-0.08582,0.03555 -0.20337,0.00745 -0.13934,0.27868c0.04772,0.20216 0.22484,0.47244 0.27868,0.65026c0.09706,0.32056 0.22984,0.47834 0.27868,0.55736c0.1092,0.17669 0.18579,0.18579 0.27868,0.27868c0.09289,0.09289 -0.01637,0.4193 0.18579,0.37157c0.13561,-0.03201 -0.09289,-0.51091 -0.09289,-0.97538c0,-0.32513 0.09289,-0.55736 0.09289,-0.74315c0,-0.13934 0,-0.18579 0,-0.23223c0,-0.04645 0.09289,-0.18579 0.18579,-0.23223c0.09289,-0.04645 0.09289,-0.04645 0.18579,-0.04645c0,0 0.09289,0 0.18579,0c0,0 0.09289,0 0.18579,0c0.18579,0 0.30589,-0.06569 0.37157,0c0.06569,0.06569 -0.04645,0.09289 -0.51091,0.09289c-0.27868,0 -0.34965,0.17482 -0.55736,0.27868c-0.04154,0.02077 -0.06282,0.13806 0.13934,0.18579c0.36163,0.08537 0.83604,0 1.11472,0c0.46447,0 0.92958,-0.04327 1.3934,-0.13934c0.65119,-0.13488 1.57903,-0.3277 2.32234,-0.37157c0.83588,-0.04934 1.67209,-0.09289 2.50813,-0.09289c0.65026,0 1.20762,0 1.4863,0c0.27868,0 0.27868,-0.04645 0.27868,-0.09289c0,-0.04645 0.07326,-0.1137 0,-0.23223c-0.0546,-0.08835 -0.32168,-0.116 -0.55736,-0.13934c-0.46221,-0.04577 -0.92894,0 -1.81143,0c-0.51091,0 -0.83604,0 -0.97538,0c-0.18579,0 -0.41802,-0.09289 -0.74315,-0.09289c-0.32513,0 -0.41802,0 -0.37157,0c0.27868,0 0.83704,0.01383 1.57919,-0.04645c1.39576,-0.11337 2.03245,-0.32379 2.50813,-0.41802c0.45789,-0.0907 0.57514,-0.04998 0.55736,-0.09289c-0.05027,-0.12137 -0.27736,-0.19779 -1.06828,-0.27868c-1.06674,-0.1091 -2.27589,-0.09289 -3.48351,-0.09289c-0.88249,0 -1.48382,0.02316 -1.81143,0.04645c-0.32431,0.02305 -0.59253,0.13873 -0.88249,0.18579c-0.18339,0.02976 -0.23223,0 0,0c0.55736,0 0.932,-0.07384 1.85787,-0.23223c1.21213,-0.20737 2.05166,-0.43846 2.69392,-0.65026c0.37688,-0.12428 0.56662,-0.10459 0.27868,-0.04645c-1.18722,0.23975 -2.55355,0.46773 -3.43706,0.74315c-0.60312,0.18801 -0.7896,0.37157 -0.7896,0.37157c0.04645,0.09289 0.23223,0.09289 0.7896,0.09289c0.74315,0 1.67765,0.0908 2.41523,0c0.38014,-0.0468 0.46447,-0.09289 0.41802,-0.09289c-0.32513,0 -0.89153,0.20722 -1.90432,0.37157c-0.80068,0.12993 -1.31584,0.3056 -0.74315,0.09289c0.41076,-0.15256 1.16878,-0.62354 1.76498,-0.92894c0.7064,-0.36184 1.4863,-0.55736 2.13655,-0.88249c0.37157,-0.18579 0.55101,-0.37839 0.65026,-0.46447c0.17544,-0.15216 0.53126,-0.40039 0.83604,-0.65026c0.25902,-0.21234 0.3213,-0.48244 0.37157,-0.60381c0.01777,-0.04291 0.08906,-0.04629 0.09289,0c0.04661,0.56313 -0.2411,1.11262 -0.32513,1.4863c-0.10392,0.46213 -0.16941,0.60253 -0.37157,0.65026c-0.0452,0.01067 -0.1142,0.10713 -0.13934,0.04645c-0.26662,-0.64367 -0.04631,-0.87716 -0.09289,-1.4863c-0.04604,-0.60205 0.04584,-0.82657 -0.13934,-0.04645c-0.112,0.47181 -0.31329,1.13722 -0.6967,2.04366c-0.16184,0.38261 -0.36775,0.49295 -0.41802,0.37157c-0.26662,-0.64367 -0.10619,-1.28891 0.13934,-1.85787c0.19906,-0.46128 0.41717,-0.72977 0.46447,-0.97538c0.01757,-0.09122 0,-0.04645 0,0.32513c0,0.46447 -0.06962,1.11256 -0.09289,1.4863c-0.00577,0.09271 -0.04768,-0.01114 0.27868,-1.30051c0.48689,-1.92355 1.11025,-4.13464 1.4863,-6.03809c0.36721,-1.85874 0.51092,-2.36879 0.46447,-2.36879c-0.04645,0 -0.14171,0.70961 -0.32513,1.25406c-0.22585,0.67044 -0.41802,1.4863 -0.60381,2.13655c-0.18579,0.65026 -0.37157,1.11472 -0.41802,1.30051c0,0 -0.09162,0.07652 -0.13934,0.27868c-0.04269,0.18082 -0.09289,0.27868 0,0.27868c0.04645,0 0.02183,-0.65058 0,-1.3934c-0.02323,-0.79062 -0.1688,-1.81349 0.27868,-1.71853c0.04543,0.00964 -0.02309,0.32585 0,0.6967c0.04654,0.74748 -0.03312,1.6759 -0.27868,2.50813c-0.22034,0.74676 -0.14333,0.80912 -0.23223,0.83604c-0.16028,0.04853 -0.12399,-0.69036 -0.23223,-1.30051c-0.13082,-0.73742 -0.18045,-1.68652 0,-2.50813c0.06302,-0.28692 0.18579,-0.60381 0.09289,-0.60381c-0.7896,0 0.08291,1.44294 0,2.55457c-0.06986,0.93673 -0.20893,1.6692 -0.23223,1.95077c-0.00766,0.09258 0,-0.13934 0,-1.3934c0,-1.34696 0.23077,-2.76111 0.88249,-3.5764c0.16405,-0.20523 0.23216,-0.1432 0.27868,0.6967c0.02568,0.46376 0.09289,0.92894 0.09289,1.3934c0,0.27868 -0.34644,0.6257 -0.41802,0.92894c-0.04268,0.18082 -0.06965,0.18737 -0.09289,-0.32513c-0.03157,-0.69599 0,-1.11472 -0.04645,-1.11472c-0.60381,0 -0.2717,1.7208 -0.6967,3.01904c-0.54836,1.67506 -0.99132,2.60102 -1.25406,2.60102c-0.13137,0 -0.09289,-0.83604 -0.23223,-1.53275c-0.23223,-1.16117 -0.06407,-1.81818 0.13934,-2.32234c0.17116,-0.42422 0.18579,-0.7896 0.27868,-0.92894c0,0 0.13907,-0.02234 0.27868,0.32513c0.4284,1.06618 0.67789,2.2543 0.46447,3.15838c-0.04772,0.20216 -0.37973,0.46901 -0.32513,0.55736c0.07326,0.11853 0.07712,-0.2758 0,-0.74315c-0.17541,-1.06295 -0.16151,-2.51228 -0.04645,-3.06549c0.07799,-0.37499 0.06369,-0.68494 0.18579,-0.88249c0.0546,-0.08835 0.14223,-0.16967 0.18579,-0.18579c0.40162,-0.14857 0.55857,1.1324 0.74315,1.90432c0.19563,0.81812 -0.2402,1.4863 -0.37157,1.4863c-0.19706,0 -0.06376,-0.56139 -0.23223,-1.67209c-0.19812,-1.30614 -0.46237,-2.46725 -0.37157,-3.20483c0.0702,-0.57021 0.40165,-1.02055 0.60381,-1.06828c0.18082,-0.04269 0.64236,0.25732 0.83604,1.20762c0.16799,0.82424 0.13232,1.22132 -0.04645,1.67209c-0.22972,0.57926 -0.65026,1.02183 -1.11472,1.3934c-0.46447,0.37157 -0.58457,0.67746 -0.65026,0.74315c-0.06569,0.06569 -0.1346,0.1009 -0.23223,0.55736c-0.12288,0.57452 -0.31591,1.02255 -0.37157,1.67208c-0.03986,0.46508 -0.08861,0.95234 -0.27868,0.92894c-0.69148,-0.08512 -0.10039,-1.58392 0,-2.64747c0.09331,-0.98853 0.73356,-1.82177 1.02183,-2.60102c0.26577,-0.71844 0.27868,-1.25406 0.27868,-1.62564c0,-0.13934 0,-0.18579 0,-0.09289c0,0.74315 -0.05153,1.85197 -0.18579,3.25128c-0.15109,1.57469 -0.00417,1.80452 -0.23223,2.41523c-0.24374,0.65268 -0.39671,0.99727 -0.32513,1.30051c0.04269,0.18082 0.0419,0.22408 -0.04645,0.27868c-0.15804,0.09767 -0.25637,0.09637 -0.32513,0.46447c-0.07033,0.3765 -0.16444,0.65274 -0.18579,0.74315c-0.02386,0.10108 -0.10997,0.1052 -0.13934,0.04645c-0.14688,-0.29376 -0.16165,-0.67978 -0.23223,-1.11472c-0.0744,-0.45847 -0.05667,-0.88465 0,-1.62564c0.04658,-0.60913 0.09289,-1.25406 0.09289,-1.76498c0,-0.18579 0.04645,-0.41802 0,-0.41802c-0.13934,0 0.27823,0.9616 0.37157,1.90432c0.02746,0.27732 -0.04645,0.55736 -0.13934,0.74315c-0.13934,0.27868 -0.29476,0.54368 -0.37157,0.65026c-0.06073,0.08425 -0.19966,0.14765 -0.27868,0c-0.3945,-0.73712 -0.1859,-1.85292 -0.13934,-2.50813c0.04939,-0.69495 -0.12806,-1.40831 0,-1.95077c0.09545,-0.40432 0.13057,-0.70119 0.37157,-1.16117c0.12194,-0.23273 0.18579,-0.46447 0.18579,-0.65026c0,-0.04645 0.13119,-0.09744 0.18579,-0.18579c0.04884,-0.07902 0.26692,-0.34238 0.46447,-0.46447c0.17669,-0.1092 0.29782,-0.1408 0.46447,-0.04645c0.34296,0.19418 0.55736,0.46447 0.65026,0.74315c0,0 0,0.09289 0,0.18579c0,0 -0.13671,0.19265 -0.37157,0.27868c-0.27583,0.10104 -0.57461,0.5456 -0.6967,0.74315c-0.1638,0.26504 -0.11836,0.56325 -0.23223,0.92894c-0.11798,0.3789 -0.28129,0.72362 -0.37157,1.02183c-0.10851,0.3584 -0.09289,0.74315 -0.09289,1.02183c0,0.37157 -0.18579,0.74315 0,0.65026c0.18579,-0.09289 -0.07577,-0.4126 0.09289,-0.97538c0.207,-0.6907 0.46356,-1.51326 0.55736,-2.183c0.09663,-0.68997 -0.1812,-1.37781 -0.37157,-2.22945c-0.09119,-0.40795 -0.06205,-0.85735 0.09289,-1.20762c0.06775,-0.15315 0.09289,-0.18579 0.18579,-0.23223c0,0 0.09289,0.04645 0.09289,0.23223c0,0.18579 0.12688,0.68151 -0.09289,1.30051c-0.18123,0.51044 -0.48469,0.90121 -0.65026,1.3934c-0.24107,0.71664 -0.37158,1.11472 -0.37158,1.11472c0.09289,0.18579 0.09289,0.27868 0.09289,0.55736c0,0.18579 0,0.37158 0,0.46447c0,0.09289 0,0.04645 0,-0.27868c0,-0.41802 0,-0.7896 0.09289,-1.25406c0.09289,-0.46447 0.20022,-0.88294 0.18579,-1.11472c-0.02327,-0.37374 0,-0.41802 0,-0.41802c0.09289,0 0.18056,0.02198 0.09289,0.18579c-0.07902,0.14765 -0.7896,0.27868 -1.25406,0.27868c-0.27868,0 -0.46627,0.02232 -0.60381,0c-0.14498,-0.02353 -0.32513,-0.04645 -0.7896,-0.04645c-0.32513,0 -0.72417,-0.08283 -0.97538,0.04645c-0.11681,0.06011 -0.14018,0.10168 -0.18579,0.09289c-0.24561,-0.0473 -0.65474,-0.16413 -0.92894,-0.23223c-0.28509,-0.07081 -0.46447,-0.13934 -0.74315,-0.13934c-0.13934,0 -0.18579,0 -0.23223,-0.04645c-0.04645,-0.04645 -0.13806,-0.12297 -0.18579,-0.32513c-0.02134,-0.09041 0,-0.27868 0,-0.46447c0,-0.04645 -0.00239,-0.15321 0.04645,-0.23223c0.0546,-0.08835 0.13551,-0.07492 0.18579,0.04645c0.0711,0.17165 0.02721,0.39878 0.09289,0.46447c0.06569,0.06569 0.18579,0 0.65026,0c0.37157,0 0.77909,0.08524 1.02183,0.18579c0.17165,0.0711 0.27868,0 0.27868,0.09289c0,0.09289 0.09289,0.18579 0.27868,0.18579c0.18579,0 0.27868,0 0.46447,0c0.27868,0 0.65089,0.01532 0.83604,0c0.28156,-0.0233 0.47192,-0.07531 0.74315,-0.13934c0.10108,-0.02386 0.29371,-0.07061 0.37157,-0.13934c0.12555,-0.11083 0.15294,-0.15294 0.18579,-0.18579c0.06569,-0.06569 0.18579,0 0.27868,-0.09289c0.09289,-0.09289 0.20356,-0.14288 0.18579,-0.18579c-0.02514,-0.06069 -0.23352,-0.17556 -0.74315,-0.13934c-0.3276,0.02328 -0.6483,0.22668 -0.92894,0.32513c-0.21914,0.07687 -0.41802,0 -0.46447,0c-0.09289,0 -0.28489,-0.05336 -0.51091,0c-0.20216,0.04772 -0.37157,0.09289 -0.51092,0.18579c0,0 0.20705,0.06778 0.65026,0.46447c0.29367,0.26284 0.59233,0.37904 0.74315,0.74315c0.03555,0.08582 0.09289,0.27868 0.18579,0.37157c0.09289,0.09289 0.213,0.15858 0.27868,0.09289c0.03284,-0.03284 0.04517,-0.16941 0.09289,-0.37157c0.03201,-0.13561 0.02104,-0.37679 -0.04645,-0.60381c-0.07127,-0.23975 -0.23556,-0.65192 -0.6967,-1.02183c-0.47239,-0.37894 -0.97538,-0.46447 -1.30051,-0.46447c-0.13934,0 -0.41802,0.04645 -0.41802,0.60381c0,0.74315 0.25564,1.56809 0.51091,2.13655c0.20493,0.45635 0.46106,0.75805 0.83604,0.83604c0.55321,0.11506 1.14663,0.20779 1.67208,0c0.31146,-0.12317 0.55736,-0.37157 0.55736,-0.51091c0,-0.13934 0.03201,-0.23596 0,-0.37157c-0.02386,-0.10108 -0.05735,-0.14641 -0.09289,-0.23223c-0.10055,-0.24274 -0.35902,-0.4751 -0.55736,-0.6967c-0.13142,-0.14683 -0.22046,-0.23972 -0.37157,-0.46447c-0.12958,-0.19272 -0.25266,-0.39184 -0.51091,-0.6967c-0.25475,-0.30072 -0.6967,-0.37157 -0.92894,-0.37157c-0.13934,0 -0.32513,0 -0.51091,0c-0.23223,0 -0.61829,0.04251 -1.02183,0.18579c-0.19575,0.0695 -0.41802,0.18579 -0.46447,0.18579c-0.09289,0 -0.1277,0.05148 0.18579,-0.04645c0.49567,-0.15484 1.05797,-0.40921 1.57919,-0.7896c0.50476,-0.36837 0.97666,-0.49454 0.92894,-0.6967c-0.01067,-0.0452 0.27868,0 0.46447,0c0.18579,0 0.18579,0 0.13934,0c-0.23223,0 -0.8379,0.05407 -1.62564,0c-1.35652,-0.09311 -2.17768,-0.37144 -2.78681,-0.41802c-0.4168,-0.03187 -0.70467,-0.13137 -0.83604,0c-0.13137,0.13137 0.26799,0.48995 0.46447,0.55736c0.44803,0.15372 1.06228,0.36778 1.4863,0.55736c0.43241,0.19334 0.83604,0.09289 1.20762,0.09289c0.27868,0 0.46447,0 0.55736,0c0.09289,0 0.18579,0 0.46447,0c0.18579,0 0.37406,-0.02134 0.46447,0c0.20216,0.04772 0.16386,0.18579 0.37157,0.18579c0.10386,0 0.23085,-0.11201 0.46447,-0.23223c0.25121,-0.12928 0.27868,-0.04645 0.27868,0.04645c0,0.09289 -0.27209,0.08877 -0.6967,0.46447c-0.46799,0.41408 -0.96792,0.89864 -1.3934,1.4863c-0.25697,0.35492 -0.44816,0.65935 -0.55736,0.83604c-0.12209,0.19755 -0.13934,0.27868 -0.13934,0.27868c0.18579,0 0.316,0.0902 0.74315,-0.13934c0.31955,-0.17172 0.46447,-0.41802 0.46447,-0.41802c0.18579,0.27868 0.22598,0.56239 0.27868,0.83604c0.0946,0.49122 0.09289,0.83604 0.18579,0.83604c0.04645,0 -0.0041,-0.27938 0.09289,-0.83604c0.08913,-0.51158 0.04645,-1.25406 -0.04645,-1.25406c-0.13934,0 0.10305,0.39921 0.23223,0.88249c0.16963,0.63458 0.41741,1.19634 0.46447,1.4863c0.02976,0.18339 0.02548,-0.03576 0.09289,-0.23223c0.15372,-0.44803 0.15659,-0.96362 0.27868,-1.16117c0.0546,-0.08835 0.09289,0 0.09289,0.18579c0,0.55736 -0.13934,1.02183 -0.13934,1.76498c0,0.27868 0,0.18579 0,-0.09289c0,-0.65026 0.17669,-1.32326 0,-1.95077c-0.10829,-0.38459 -0.2402,-0.51091 -0.37157,-0.51091c-0.06569,0 -0.06966,0.50983 -0.09289,1.25406c-0.03189,1.02133 -0.01128,1.95256 0.04645,2.8797c0.04654,0.74749 0.19031,1.42026 0.37157,1.85787c0.12817,0.30944 0.18579,0.37157 0.13934,0.37157c-0.04645,0 -0.11424,0.09538 -0.09289,0.18579c0.02386,0.10108 0.04645,0.18579 0.04645,0.13934c0,-0.09289 -0.00704,-0.28078 0.09289,-0.60381c0.08682,-0.28063 0.18579,-0.60381 0.18579,-1.02183c0,-0.23223 0,-0.37158 0,-0.27868c0,0.18579 0,0.46447 0,0.92894c0,0.37157 -0.09289,0.65026 0,0.65026c0.04645,0 -0.04645,-0.37157 -0.09289,-0.7896c-0.04645,-0.41802 -0.20348,-0.83204 -0.37157,-1.34696c-0.15921,-0.48769 -0.03337,-0.93373 -0.09289,-1.30051c-0.04705,-0.28996 -0.18759,-0.54456 -0.23223,-0.55736c-0.4212,-0.1208 -0.32999,0.85442 -0.51091,1.20762c-0.1527,0.2981 -0.22173,0.54971 -0.46447,0.65026c-0.34329,0.1422 -0.68097,0.03191 -1.06828,-0.37157c-0.45714,-0.47623 -0.76685,-0.9132 -1.16117,-1.53274c-0.34647,-0.54435 -0.54696,-0.80824 -0.55736,-0.97538c-0.01291,-0.20732 0.52938,-0.42388 0.92894,-0.7896c0.46601,-0.42654 0.99691,-1.00906 1.30051,-1.20762c0.08692,-0.05685 0,-0.04645 -0.37158,-0.04645c-0.37157,0 -0.97538,0 -1.53274,0c-0.46447,0 -0.73264,0.27103 -0.97538,0.37157c-0.04291,0.01777 -0.04645,0.09289 0.37157,0.09289c0.46447,0 0.55016,-0.08928 0,0c-0.57993,0.09411 -0.8687,0.25017 -0.74315,0.13934c0.15572,-0.13747 0.26612,-0.24286 0.46447,-0.46447c0.08761,-0.09789 0.09289,-0.18579 0.09289,-0.23223c0,-0.04645 -0.09289,-0.09289 -0.55736,-0.09289c-0.32513,0 -0.42332,0.03356 -0.27868,-0.18579c0.13769,-0.20881 0.09289,-0.27868 0.18579,-0.27868c0,0 0.28755,0.27658 0.37157,0.65026c0.10392,0.46213 0.18579,0.83604 0.18579,1.11472c0,0.27868 -0.06078,0.45859 -0.09289,0.55736c-0.08737,0.26868 -0.04154,0.39235 0,0.37157c0.41543,-0.20772 0.46695,-0.48957 0.55736,-0.51091c0.10108,-0.02386 0.2172,-0.27904 0.37157,-0.41802c0.29493,-0.26552 0.86379,-0.35495 1.02183,-0.65026c0.04383,-0.0819 -0.00119,-0.16036 -0.18579,-0.13934c-0.6157,0.07012 -1.09381,0.32408 -1.71853,0.41802c-0.04593,0.00691 -0.0419,0.10105 0.04645,0.04645c0.3951,-0.24418 0.73643,-0.57889 1.30051,-0.74315c0.36774,-0.10709 0.37507,-0.13571 0.27868,-0.04645c-0.31419,0.29095 -0.80717,0.70413 -1.25406,0.92894c-0.63336,0.31861 -0.6967,0.46447 -0.74315,0.55736c0,0 0.10163,0.23344 0.32513,0.37157c0.24988,0.15444 0.55736,0.18579 0.55736,0.27868c0,0.09289 0.02299,0.27963 0,0.55736c-0.0233,0.28156 -0.18579,0.46447 -0.18579,0.46447c0,-0.04645 -0.01368,-0.20187 0.09289,-0.27868c0.16851,-0.12145 0.27868,-0.09289 0.27868,-0.13934c0,-0.04645 -0.04017,-0.00019 -0.55736,0.04645c-0.32381,0.0292 -0.46447,0 -0.55736,0c-0.04645,0 -0.09289,-0.04645 -0.09289,-0.18579c0,-0.23223 0.07652,-0.46319 0.27868,-0.51092c0.09041,-0.02134 0.02397,0.03114 -0.04645,0.51092c-0.04047,0.27573 0.03735,0.44816 -0.13934,0.55736c-0.03951,0.02442 -0.06005,0.06005 -0.09289,0.09289c-0.06569,0.06569 0,0.18579 0,0.18579c0.09289,0.27868 0.32385,0.63388 0.37157,0.83604c0.06403,0.27123 0,0.74315 0,1.20762c0,0.46447 -0.02856,0.85332 0.09289,1.02183c0.07681,0.10657 0.1201,0.1201 0.18579,0.18579c0.06569,0.06569 0.09289,0.09289 0.09289,0.27868c0,0.09289 0,0.18579 0,0.37157c0,0.09289 0,0.18579 0,0.27868c0,0.18579 0.02134,0.28117 0,0.37157c-0.02386,0.10108 0,0.27868 0,0.27868c0,-0.09289 0.00976,-0.18943 -0.04645,-0.32513c-0.03974,-0.09595 -0.32634,-0.28741 -0.46447,-0.51091c-0.07722,-0.12494 -0.17155,-0.29999 -0.23223,-0.32513c-0.04291,-0.01777 -0.16725,0.03865 -0.23223,0.32513c-0.08283,0.36519 -0.09289,0.55736 -0.09289,0.74315c0,0.09289 0.04645,0.18579 0.04645,0.18579c0.09289,0 0.10788,-0.11556 0.27868,-0.55736c0.19532,-0.50522 0.40364,-1.03827 0.55736,-1.4863c0.13482,-0.39295 0.18579,-0.46447 0.18579,-0.18579c0,0.09289 -0.16169,0.45935 -0.27868,1.02183c-0.05753,0.27661 -0.13829,0.74593 -0.09289,1.11472c0.0468,0.38014 0.1201,0.39878 0.18579,0.46447c0.06569,0.06569 0.01728,0.07501 0.18579,-0.04645c0.10657,-0.07681 0.36057,-0.29636 0.65026,-0.46447c0.35931,-0.20852 0.73091,-0.30549 1.11472,-0.46447c0.27139,-0.11242 0.39873,-0.19455 0.37157,-0.23223c-0.08588,-0.11915 -0.46447,-0.09289 -1.25406,-0.09289c-0.83604,0 -1.4863,0.11121 -1.4863,0.27868c0,0.16747 0.60381,0.09289 1.16117,0.09289c0.74315,0 1.48342,-0.06959 1.76498,-0.09289c0.09258,-0.00766 0.09289,0.09289 0.09289,0.18579c0,0.18579 0,0.37157 0,0.46447c0,0.09289 0.06553,-0.21795 0.27868,-0.37157c0.08425,-0.06073 0.20047,0.02717 0.04645,0.09289c-0.39386,0.16807 -0.8151,0.23015 -0.97538,0.27868c-0.08891,0.02692 -0.15639,-0.01071 -0.09289,-0.09289c0.30186,-0.39071 0.68396,-0.45912 0.65026,-0.55736c-0.15372,-0.44803 -0.88698,0.03767 -1.34696,0.27868c-0.11637,0.06097 -0.14757,0.04059 -0.04645,-0.09289c0.25858,-0.34133 0.61369,-0.7477 1.11472,-1.06828c0.43742,-0.27987 0.93924,-0.54276 1.20762,-0.74315c0.29067,-0.21704 0.31135,-0.2263 0.27868,-0.13934c-0.17366,0.46219 -0.50964,0.54099 -0.55736,0.74315c-0.02134,0.09041 -0.07902,0.13695 0,0.18579c0.17669,0.1092 0.21054,-0.43421 0.55736,-0.74315c0.48183,-0.42919 0.70775,-0.30285 0.55736,0c-0.20657,0.416 -0.46447,0.65026 -0.60381,0.92894c-0.04645,0.09289 -0.10473,-0.07465 0.23223,-0.6967c0.15953,-0.2945 0.50701,-0.41617 0.46447,-0.51091c-0.10246,-0.22817 -0.62105,0.18333 -0.92894,0.65026c-0.16171,0.24524 -0.04714,0.45312 -0.13934,0.46447c-0.19007,0.0234 -0.13934,-0.60381 -0.13934,-1.06828c0,-0.41802 0.22763,-0.785 0.46447,-1.02183c0.11842,-0.11842 0.01223,-0.06516 -0.55736,0.32513c-0.51405,0.35223 -1.13381,0.77531 -1.34696,0.92894c-0.16851,0.12145 -0.1519,0.03582 0.04645,-0.18579c0.26284,-0.29367 0.55736,-0.51092 0.74315,-0.60381c0,0 -0.2341,0.04413 -0.46447,0.23223c-0.56198,0.45887 -1.08751,0.77036 -1.02183,0.83604c0.06569,0.06569 0.26482,-0.29819 0.65026,-0.55736c0.44949,-0.30224 1.0331,-0.67781 1.11472,-0.51092c0.23267,0.47573 -0.92181,0.84249 -1.30051,1.25406c-0.15725,0.1709 -0.30485,0.2826 -0.27868,0.09289c0.05117,-0.37095 0.49175,-0.55488 1.02183,-0.88249c0.59265,-0.36628 0.83604,-0.46447 0.83604,-0.32513c0,0.18579 0.04764,0.49152 -0.23223,0.92894c-0.32057,0.50103 -0.70752,0.6312 -0.88249,0.74315c-0.25051,0.16029 -0.32866,0.20356 -0.37157,0.18579c-0.06069,-0.02514 -0.0578,-0.09359 -0.04645,-0.18579c0.0234,-0.19007 0.09454,-0.58078 0.23223,-0.7896c0.07232,-0.10967 0.092,-0.15222 0,-0.13934c-0.66974,0.0938 -0.82692,0.38951 -1.11472,0.46447c-0.2734,0.07121 -0.32513,-0.09289 -0.32513,-0.13934c0,-0.13934 -0.01358,-0.56274 0.13934,-0.92894c0.25627,-0.61366 0.62907,-1.02964 0.92894,-1.67209c0.12424,-0.26619 0.20272,-0.47161 0.09289,-0.55736c-0.15095,-0.11785 -0.44606,0.20777 -0.92894,0.7896c-0.44494,0.53612 -0.5993,1.15076 -0.6967,1.11472c-0.17961,-0.06644 0.04592,-0.86744 0.51092,-1.71853c0.20531,-0.37579 0.46447,-0.65026 0.37157,-0.65026c-0.04645,0 0,0.23223 0,0.41802c0,0.55736 -0.16429,0.80008 -0.37157,1.30051c-0.14657,0.35386 -0.26481,0.41563 -0.18579,0.46447c0.08835,0.0546 0.28918,-0.3641 0.65026,-0.88249c0.28715,-0.41225 0.74315,-0.60381 0.92894,-0.60381c0.09289,0 0.12066,0.55805 0.09289,1.11472c-0.02325,0.4662 -0.156,0.93211 -0.37157,1.11472c-0.07088,0.06004 -0.16245,0.00345 -0.18579,-0.23223c-0.04577,-0.46221 0.2001,-1.05553 0.37157,-1.34696c0.13324,-0.22645 0.11044,-0.21595 -0.27868,0.18579c-0.50477,0.52114 -1.19059,1.3836 -1.43985,1.30051c-0.31158,-0.10386 0.26655,-0.76978 0.60381,-1.3934c0.41511,-0.7676 0.76697,-1.41502 1.30051,-1.95077c0.48723,-0.48925 0.29567,-1.53481 0.74315,-1.43985c0.04543,0.00964 0,0.60381 0,1.43985c0,0.46447 0.10665,0.95015 0,1.20762c-0.05027,0.12137 -0.13934,0.09289 -0.18579,0.09289c-0.13934,0 -0.27868,-0.32513 -0.27868,-0.55736c0,-0.18579 0.06403,-0.33258 0,-0.60381c-0.04772,-0.20216 -0.1774,-0.33542 -0.23223,-0.37158c-0.20881,-0.13769 -0.51091,-0.09289 -0.83604,-0.09289c-0.13934,0 -0.11989,0.01192 -0.04645,0.23223c0.05875,0.17625 0,0.37158 0,0.46447c0,0.18579 0.384,0.2925 0.83604,0.18579c0.40432,-0.09545 0.63831,-0.56663 0.92894,-0.92894c0.26795,-0.33403 0.6961,-0.50347 0.65026,-0.51091c-0.14498,-0.02353 -0.47504,0.25982 -0.6967,0.51091c-0.4124,0.46716 -0.67224,1.12836 -0.83604,1.3934c-0.12209,0.19755 -0.02729,0.41069 0.41802,0.27868c1.06224,-0.31489 1.54389,-0.8523 2.04366,-1.16117c0.11175,-0.06907 0.18579,-0.09289 0.18579,-0.04645c0,0 0.03145,0.39319 -0.23223,0.74315c-0.37603,0.49907 -1.13587,0.70543 -1.57919,1.20762c-0.13747,0.15572 0.15306,0.0517 0.32513,-0.41802c0.20208,-0.55166 0.77909,-0.98601 0.65026,-1.25406c-0.04024,-0.08372 -0.55788,-0.17272 -0.97538,0.46447c-0.20991,0.32036 -0.17482,0.74315 -0.27868,0.74315c-0.10386,0 -0.04645,-0.32513 -0.04645,-0.92894c0,-0.60381 0.20589,-1.23786 0.46447,-1.57919c0.10112,-0.13349 0.09289,-0.18579 0.09289,0c0,0.55736 0.29546,1.11721 0.23223,1.4863c-0.03507,0.20473 -0.1065,0.40442 -0.13934,0.37157c-0.09853,-0.09853 0.14289,-0.46186 0.27868,-0.65026c0.51529,-0.71492 0.54105,-1.21671 0.65026,-1.3934c0.02442,-0.03951 0,0 0,0.18579c0,0.27868 0.04584,0.54608 0.09289,0.83604c0.02976,0.18339 -0.08153,0.52918 -0.41802,0.37158c-0.32851,-0.15387 -0.55713,-0.73626 -0.60381,-1.20762c-0.04119,-0.41599 0,-0.65026 0,-0.74315c0,-0.18579 0.1078,-0.40674 0.65026,-0.27868c0.40432,0.09545 0.65026,0.74315 0.65026,1.11472c0,0.46447 -0.13403,0.79423 -0.41802,1.11472c-0.22213,0.25068 -0.6511,0.48006 -1.25406,0.23223c-0.39607,-0.16279 -0.69635,-0.50235 -0.74315,-0.88249c-0.01702,-0.1383 0.19217,-0.33519 0.55736,-0.41802c0.28648,-0.06498 0.37865,-0.17489 0.46447,-0.13934c0.36411,0.15082 0.45233,0.66221 0.37157,0.92894c-0.09706,0.32056 -0.41802,0.46447 -0.6967,0.74315c-0.18579,0.18579 -0.23223,0.18579 -0.32513,0.18579c-0.04645,0 0,-0.04645 0.09289,-0.04645c0.09289,0 0.2001,0.0337 0.37158,0.32513c0.13324,0.22645 0.32385,0.26231 0.37157,0.46447c0.02134,0.09041 0.01338,0.32427 -0.23223,0.37157c-0.36487,0.07027 -0.60381,0 -0.65026,0c-0.04645,0 -0.09289,0 -0.13934,-0.09289l0,-0.09289l0,-0.13934l0,-0.04645" id="svg_9" stroke="#000" fill="none"/>
  <path d="m6.56572,4.30283c-0.04645,0 -0.2143,0.15313 -0.32513,0.27868c-0.06873,0.07786 -0.04645,0.09289 -0.09289,0.18579c0,0 0,0.18579 0.09289,0.46447l0.09289,0.18579l0,0l0,0.09289" id="svg_10" stroke="#000" fill="none"/>
  <path d="m14.50813,5.51045c0,0.09289 0,0.18579 0,0.37157c0,0 0,0.09289 -0.09289,0.09289c-0.09289,0 -0.23223,0 -0.27868,0c-0.13934,0 -0.19939,0.03284 -0.23223,0c-0.03284,-0.03284 -0.04645,-0.09289 -0.09289,-0.13934l-0.13934,0.13934" id="svg_11" stroke="#000" fill="none"/>
  <path d="m11.3033,11.26985c-0.13934,-0.09289 -0.18579,-0.09289 -0.41802,-0.13934l-0.04645,0l-0.09289,0l-0.09289,-0.09289" id="svg_12" stroke="#000" fill="none"/>
  <path d="m11.81421,11.82722c-0.04645,0 -0.17241,0.04559 -0.41802,0.09289c-0.31926,0.06148 -0.65026,0 -0.6967,0c-0.04645,0 -0.1142,0.01424 -0.13934,-0.04645c-0.03555,-0.08582 0.01328,-0.19562 -0.09289,-0.32513c-0.04164,-0.0508 -0.04645,-0.09289 -0.04645,-0.13934c0,-0.09289 0.07921,-0.29476 0.18579,-0.37157c0.08425,-0.06073 0.27868,-0.09289 0.37157,-0.09289c0.27868,0 0.37157,0 0.55736,0l0.09289,0l0.18579,0.13934l0,0" id="svg_13" stroke="#000" fill="none"/>
  <polyline stroke-linecap="round" id="svg_14" points="12.836041929472184,10.340917608955863 12.789595115316352,10.340917608955863 " stroke="#000" fill="none"/>
 </g>
</svg>