<svg width="28"
     height="28"
     viewBox="0 0 24 24"
     xmlns="http://www.w3.org/2000/svg"
     stroke="#ff3040"
>

 <g>
  <path id="svg_1" stroke-linejoin="round" stroke-linecap="round" stroke-width="2" d="m12,6.00019c-1.7994,-2.09702 -4.80623,-2.74509 -7.06077,-0.82485c-2.25455,1.92024 -2.57196,5.13076 -0.80145,7.40186c1.47206,1.8882 5.92702,5.8707 7.38712,7.1597c0.1633,0.1442 0.245,0.2163 0.3403,0.2446c0.0831,0.0247 0.1741,0.0247 0.2573,0c0.0953,-0.0283 0.1769,-0.1004 0.3403,-0.2446c1.4601,-1.289 5.915,-5.2715 7.3871,-7.1597c1.7705,-2.2711 1.4918,-5.50182 -0.8015,-7.40186c-2.2933,-1.90004 -5.249,-1.27217 -7.0484,0.82485z" clip-rule="evenodd" fill-rule="evenodd"/>
  <path d="m7.23443,4.76423c0,0 -0.00442,0.03725 -0.09037,0.09037c-0.07688,0.04751 -0.40217,0.19518 -0.63261,0.54224c-0.22356,0.3367 -0.51534,0.66816 -0.72299,1.08448c-0.19863,0.39825 -0.44378,0.74681 -0.76817,1.40078c-0.23416,0.47208 -0.40668,1.12966 -0.40668,1.6719c0,0.31631 0.02104,0.68512 0.09037,0.45187c0.13131,-0.44171 0.33473,-1.15254 0.49705,-1.71709c0.1519,-0.52832 0.53916,-1.0555 0.36149,-1.26522c-0.02921,-0.03448 -0.13514,-0.04482 -0.45187,0.31631c-0.42971,0.48995 -0.51565,1.31481 -0.58743,1.89784c-0.06829,0.55474 -0.12671,0.70712 0.04519,0.81336c0.07688,0.04751 0.45104,0.01301 0.49705,-0.22593c0.06836,-0.35497 0.16585,-0.70254 0.36149,-1.17485c0.17292,-0.41747 0.04519,-0.72299 0.04519,-0.90373c0,0 -0.04453,0.31851 0,0.76817c0.06811,0.68786 0.51509,1.12657 0.63261,1.53634c0.01246,0.04344 -0.02258,-0.04425 -0.04519,-0.85855c-0.01504,-0.54203 -0.02202,-0.99685 0.04519,-1.44597c0.06819,-0.45574 0.39923,-0.7281 0.58743,-0.9941c0.13049,-0.18444 0.37461,-0.24847 0.54224,-0.04519c0.33649,0.40805 0.16765,1.2861 -0.13556,1.71709c-0.36952,0.52526 -0.75567,0.79025 -1.31041,0.85855c-0.31394,0.03865 -0.66978,0.09851 -0.90373,-0.18075c-0.43138,-0.51493 -0.13919,-1.34135 0.09037,-2.07858c0.11078,-0.35577 0.22593,-0.45187 0.27112,-0.45187c0.09037,0 0.24652,0.30933 0.45187,0.94892c0.10056,0.31322 0.34698,0.70188 0.22593,0.99411c-0.07336,0.17712 -0.48977,0.37662 -1.12966,0.13556c-0.45739,-0.17231 -0.77657,-0.61807 -0.76817,-0.90373c0.0143,-0.48646 0.52543,-0.86297 0.99411,-0.9941c0.52939,-0.14812 1.11901,-0.2541 1.40078,0.09037c0.52754,0.64492 0.28437,1.59055 -0.18075,2.25933c-0.2015,0.28974 -0.58462,0.4292 -0.85855,0.45187c-0.2702,0.02236 -0.68844,-0.16881 -0.9941,-0.45187c-0.18755,-0.17368 -0.46539,-0.57133 -0.31631,-0.90373c0.19656,-0.43828 0.88417,-0.88077 1.40078,-0.99411c0.53148,-0.11659 0.81087,0.1037 0.90373,0.49705c0.16611,0.70365 0.08716,1.31079 -0.18075,1.71709c-0.24625,0.37345 -0.53807,0.56466 -0.72299,0.58743c-0.31394,0.03865 -0.7302,-0.32149 -0.94892,-0.99411c-0.33999,-1.04555 0.11895,-1.58715 0.63261,-1.98821c0.52948,-0.4134 1.12967,-0.72299 1.62672,-0.72299c0.36149,0 0.70422,0.36909 0.85855,0.72299c0.12116,0.27785 0.20223,0.43348 0.27112,0.81336c0.08062,0.44462 0.07298,0.7613 -0.22593,0.94892c-0.3156,0.19809 -0.67614,0.14909 -0.99411,-0.04519c-0.40988,-0.25044 -0.63227,-1.07615 -0.6778,-1.44597c-0.04417,-0.35878 0.01777,-0.83932 0.36149,-1.17485c0.50508,-0.49305 0.83928,-0.72073 1.12967,-0.58743c0.43654,0.2004 0.72084,0.7245 1.03929,1.17485c0.22442,0.31738 0.45187,0.58743 0.49705,0.6778c0.04519,0.09037 -0.17887,0.20331 -0.58743,0.22593c-0.49629,0.02749 -0.76817,-0.13556 -0.85855,-0.31631c-0.18075,-0.36149 -0.27712,-0.7482 -0.09037,-1.26522c0.21326,-0.59042 0.71465,-0.8582 1.08448,-0.90373c0.22424,-0.02761 0.28368,-0.10238 0.54224,0.18075c0.23799,0.2606 0.72474,0.86205 0.76817,1.12966c0.06867,0.42314 0.20553,0.6033 0,0.76817c-0.22293,0.17882 -0.63995,0.16728 -1.03929,0.09037c-0.47789,-0.09203 -0.80573,-0.46183 -1.03929,-0.63261c-0.13151,-0.09617 -0.2739,-0.29864 -0.13556,-0.63261c0.09782,-0.23616 0.45582,-0.17143 0.6778,-0.27112c0.18435,-0.08278 0.47099,0.01935 0.72299,0.22593c0.09884,0.08103 0.19823,0.2674 0.31631,0.31631c0.04175,0.01729 0.27112,-0.09037 0.6778,-0.09037c0.54224,0 1.26902,0.17207 1.89784,0.45187c0.5911,0.26301 0.65334,0.30245 0.6778,0.36149c0.03458,0.08349 0.03195,0.14879 0,0.18075c-0.0639,0.0639 -0.25497,-0.20373 -0.63261,-0.45187c-0.30446,-0.20005 -0.67984,-0.35464 -0.99411,-0.45187c-0.27302,-0.08446 -0.49225,-0.1677 -0.63261,-0.04519c-0.18332,0.16002 -0.09133,0.36656 0.13556,0.40668c0.58526,0.10349 0.99411,0.18075 1.3556,0.18075c0.09037,0 -0.04769,0.06546 -0.90373,0c-0.59261,-0.04532 -1.74409,-0.17609 -1.89784,-0.27112c-0.08595,-0.05312 -0.06105,-0.27997 0.04519,-0.45187c0.11878,-0.19219 0.13922,-0.27595 0.18075,-0.45187c0.02321,-0.09834 0.09037,-0.09037 0.18075,-0.09037c0.22593,0 0.62347,0.05867 1.08448,0.36149c0.57649,0.37868 1.23026,0.59777 1.3556,0.85855c0.01957,0.04073 -0.19936,0.14391 -0.45187,0.04519c-0.74455,-0.29111 -1.25516,-1.02682 -1.08448,-1.17485c0.09655,-0.08374 0.48549,0.35111 0.81336,0.58743c0.41473,0.29892 0.64453,0.74225 0.94892,0.85855c0.29847,0.11404 0.42865,0.09834 0.45187,0c0.02076,-0.08796 -0.09037,-0.27112 -0.09037,-0.45187c0,0 -0.04076,-0.12763 0.04519,-0.18075c0.19219,-0.11878 0.34556,-0.13432 0.54224,-0.18075c0.04398,-0.01038 0.09037,-0.09037 0.18075,-0.18075c0.09037,-0.09037 0.19823,-0.13184 0.31631,-0.18075c0.12524,-0.05188 0.18075,0 0.09037,0c-0.18075,0 -0.47988,-0.05987 -0.72299,0.09037c-0.2718,0.16798 -0.41031,0.60443 -0.58743,0.6778c-0.04175,0.01729 -0.20148,0.01385 -0.22593,-0.04519c-0.03458,-0.08349 0.03517,-0.47926 0.49705,-0.63261c0.66575,-0.22103 0.97373,-0.22391 1.12966,-0.27112c0.12974,-0.03928 0.2355,0.01292 0.36149,-0.09037c0.19768,-0.16206 0.27112,-0.27112 0.31631,-0.27112c0.04519,0 0.09037,0 0.13556,0c0.04519,0 0.18075,-0.09037 0.31631,-0.18075c0.13556,-0.09037 0.36324,-0.24941 0.49705,-0.27112c0.28209,-0.04578 0.54224,-0.09037 0.72298,-0.09037c0.09037,0 0.20282,0.09949 0.04519,0.22593c-0.14533,0.11658 -0.67936,0.2149 -1.3556,0.31631c-0.81546,0.12229 -1.31041,0.31631 -1.80746,0.31631c-0.09037,0 0,0 0.09037,0c0.22593,0 0.40388,-0.02252 0.6778,-0.04519c0.40529,-0.03354 1.08448,-0.09037 1.62672,-0.09037c0.36149,0 0.6778,0 0.9941,0c0.13556,0 0.27112,0 0.36149,0c0.09037,0 0.18075,-0.09037 0.31631,-0.09037c0.04519,0 0.09037,0 0.13556,0c0.04519,0 0.01097,-0.22534 -0.27112,-0.27112c-0.31222,-0.05067 -0.85855,-0.22593 -0.85855,0c0,0.04519 0.18075,0 0.31631,0c0.13556,0 0.31631,0 0.54224,0c0.18075,0 0.27112,0 0.31631,0.04519c0.04519,0.04519 0.1271,0.09972 0.22593,0.18075c0.126,0.10329 0.19398,0.10361 0.22593,0.13556c0.03195,0.03195 0.04519,0.04519 0.27112,0.04519c0.22593,0 0.51081,-0.06917 0.6778,0c0.05904,0.02446 0.14957,0.10562 0.27112,0.18075c0.05436,0.0336 0.14512,0.07746 0.27112,0.18075c0.04942,0.04051 0.18857,0.03853 0.22593,0.09037c0.05908,0.08197 0.10715,0.12412 0.22593,0.31631c0.05312,0.08595 0.22593,0.27112 0.27112,0.36149c0.04519,0.09037 0.03227,0.28068 0.13556,0.40668c0.04051,0.04942 0.09037,0.13556 0.09037,0.18075c0,0.04519 0,0.27112 0,0.40668c0,0.04519 0.03195,0.19398 0,0.22593c-0.03195,0.03195 -0.09878,0.01389 -0.18075,-0.04519c-0.10368,-0.07473 -0.18075,-0.27112 -0.31631,-0.54224c-0.09037,-0.18075 -0.17402,-0.33824 -0.27112,-0.54224c-0.16014,-0.33645 -0.2728,-0.46785 -0.45187,-0.63261c-0.07435,-0.06842 -0.12871,-0.03665 -0.09037,0.04519c0.29939,0.6392 0.72649,0.7482 0.90373,0.99411c0.26155,0.36289 0.40115,0.45485 0.45187,0.54224c0.08178,0.14091 0.16751,0.19398 0.13556,0.22593c-0.03195,0.03195 -0.45525,-0.05306 -0.72298,-0.45187c-0.11264,-0.16778 -0.18612,-0.37123 -0.27112,-0.63261c-0.06249,-0.19217 -0.19281,-0.26948 -0.18075,-0.22593c0.07033,0.25392 0.31795,0.35463 0.54224,0.85855c0.24514,0.55077 0.31587,1.16537 0.36149,1.49116c0.0188,0.13425 -0.10988,0.26081 -0.40668,-0.04519c-0.43706,-0.45061 -0.55832,-0.89289 -0.85855,-1.3556c-0.28683,-0.44206 -0.46915,-1.0308 -0.63261,-1.26522c-0.16549,-0.23733 -0.31631,-0.27112 -0.36149,-0.27112c-0.04519,0 0.23485,0.31155 0.49705,0.81336c0.23396,0.44776 0.58388,0.81614 0.85855,1.89784c0.08966,0.3531 0.04436,0.70997 0.09037,0.94892c0.00854,0.04437 -0.0605,0.12917 -0.36149,-0.40668c-0.28769,-0.51216 -0.74859,-1.15732 -1.17485,-1.80746c-0.28893,-0.44069 -0.64596,-0.89862 -0.81336,-1.3556c-0.0983,-0.26835 -0.25785,-0.46422 -0.09037,-0.27112c0.29606,0.34136 0.52295,0.68533 0.81336,1.40078c0.2968,0.73121 0.57887,1.45751 0.94892,1.98821c0.18275,0.26209 0.36149,0.45187 0.45187,0.54224c0.04519,0.04519 0.1375,0.03209 0.18075,0.04519c0.15593,0.04721 0.23268,0.2045 0.27112,0.18075c0.08595,-0.05312 0.13556,-0.18075 0.18075,-0.36149c0.04519,-0.18075 0.04961,-0.218 0.13556,-0.27112c0.03844,-0.02376 0.17669,-0.04074 0.27112,0.27112c0.06547,0.21624 0.04519,0.36149 0.04519,0.54224c0,0.04519 -0.00782,0.26447 -0.04519,0.31631c-0.05908,0.08197 -0.14397,0.07648 -0.22593,0.13556c-0.05184,0.03736 -0.18075,0.18075 -0.22593,0.22593c-0.09037,0.09037 -0.13556,0.18075 -0.22593,0.27112c-0.04519,0.04519 -0.18075,0.18075 -0.22593,0.22593c-0.18075,0.18075 -0.23997,0.27475 -0.27112,0.40668c-0.04643,0.19668 -0.17872,0.20556 -0.22593,0.36149c-0.02619,0.0865 0,0.13556 -0.04519,0.18075c-0.09037,0.09037 -0.13556,0.13556 -0.22593,0.22593c-0.13556,0.13556 -0.30241,0.27953 -0.36149,0.36149c-0.03736,0.05184 -0.07648,0.09878 -0.13556,0.18075c-0.07473,0.10368 -0.11559,0.15903 -0.27112,0.27112c-0.16394,0.11816 -0.27112,0.18075 -0.31631,0.22593c-0.04519,0.04519 -0.18075,0.18075 -0.22593,0.22593c-0.04519,0.04519 -0.03129,0.14396 -0.09037,0.22593c-0.03736,0.05184 -0.12167,0.09878 -0.18075,0.18075c-0.07473,0.10368 -0.09037,0.22593 -0.13556,0.27112c-0.04519,0.04519 -0.13556,0.09037 -0.22593,0.18075c-0.04519,0.04519 -0.12286,0.14958 -0.27112,0.27112c-0.12599,0.10329 -0.22593,0.18075 -0.36149,0.31631c-0.09037,0.09037 -0.13556,0.13556 -0.22593,0.22593c-0.04519,0.04519 -0.10715,0.07893 -0.22593,0.27112c-0.05312,0.08595 -0.11235,0.1276 -0.13556,0.22593c-0.01038,0.04398 -0.05359,0.07648 -0.13556,0.13556c-0.10368,0.07473 -0.18075,0.18075 -0.22593,0.22593c-0.04519,0.04519 -0.22593,0.13556 -0.31631,0.22593c-0.04519,0.04519 -0.19031,0.16783 -0.31631,0.27112c-0.14826,0.12154 -0.27112,0.27112 -0.31631,0.31631c-0.04519,0.04519 -0.09037,0.09037 -0.13556,0.13556c-0.09037,0.09037 -0.14396,0.12167 -0.22593,0.18075c-0.20736,0.14946 -0.23492,0.2048 -0.36149,0.27112c-0.20013,0.10486 -0.27112,0.18075 -0.40668,0.31631c-0.04519,0.04519 -0.20148,0.12171 -0.22593,0.18075c-0.01729,0.04175 -0.09037,0.09037 -0.13556,0.13556c-0.22593,0.22593 -0.27953,0.25723 -0.36149,0.31631c-0.10368,0.07473 -0.13556,0.13556 -0.18075,0.13556c-0.09037,0 -0.14396,0.01389 -0.22593,-0.04519c-0.10368,-0.07473 -0.19398,-0.23917 -0.22593,-0.27112c-0.0639,-0.0639 -0.14231,-0.24736 -0.18075,-0.27112c-0.08595,-0.05312 -0.13184,-0.15304 -0.18075,-0.27112c-0.03458,-0.08349 -0.00442,-0.12763 -0.09037,-0.18075c-0.03844,-0.02376 -0.00885,-0.07451 -0.18075,-0.18075c-0.03844,-0.02376 -0.14906,-0.04286 -0.22593,-0.09037c-0.08595,-0.05312 -0.06411,-0.19967 -0.13556,-0.27112c-0.14289,-0.14289 -0.27787,-0.15699 -0.31631,-0.18075c-0.1719,-0.10624 -0.15998,-0.18316 -0.18075,-0.27112c-0.04643,-0.19667 -0.24271,-0.25968 -0.36149,-0.45187c-0.05312,-0.08595 -0.20848,-0.14898 -0.31631,-0.27112c-0.06687,-0.07575 -0.29309,-0.17278 -0.31631,-0.27112c-0.02076,-0.08796 -0.21346,-0.10044 -0.36149,-0.27112c-0.08374,-0.09655 -0.23654,-0.278 -0.27112,-0.36149c-0.09782,-0.23616 -0.30044,-0.18959 -0.40668,-0.36149c-0.04751,-0.07688 -0.21747,-0.28046 -0.31631,-0.36149c-0.126,-0.10329 -0.15304,-0.13184 -0.27112,-0.18075c-0.12524,-0.05188 -0.27112,-0.09037 -0.31631,-0.18075c-0.04519,-0.09037 -0.1633,-0.23935 -0.27112,-0.36149c-0.06687,-0.07575 -0.10951,-0.12513 -0.18075,-0.18075c-0.14685,-0.11466 -0.07648,-0.18915 -0.13556,-0.27112c-0.14946,-0.20737 -0.2355,-0.2582 -0.36149,-0.36149c-0.09884,-0.08103 -0.16685,-0.27952 -0.22593,-0.36149c-0.14946,-0.20736 -0.25036,-0.27354 -0.27112,-0.36149c-0.02321,-0.09834 -0.13556,-0.18075 -0.18075,-0.27112c-0.04519,-0.09037 -0.10602,-0.16744 -0.18075,-0.27112c-0.05908,-0.08197 -0.09037,-0.18075 -0.13556,-0.27112c-0.04519,-0.09037 -0.13556,-0.18075 -0.18075,-0.27112c-0.04519,-0.09037 -0.03496,-0.26367 -0.27112,-0.36149c-0.04175,-0.01729 -0.04961,-0.12763 -0.13556,-0.18075c-0.03844,-0.02376 -0.09712,-0.15699 -0.13556,-0.18075c-0.08595,-0.05312 -0.04961,-0.218 -0.13556,-0.27112c-0.03844,-0.02376 -0.06267,-0.13184 -0.18075,-0.18075c-0.04175,-0.01729 -0.09037,-0.09037 -0.18075,-0.18075c0,0 0.09037,0.13556 0.22593,0.27112c0.09037,0.09037 0.22593,0.22593 0.40668,0.40668c0.09037,0.09037 0.13556,0.13556 0.22593,0.22593c0.09037,0.09037 0.13556,0.13556 0.22593,0.22593c0.09037,0.09037 0.13556,0.18075 0.22593,0.27112c0.04519,0.04519 0.08372,0.14338 0.13556,0.18075c0.08197,0.05908 0.33031,0.06044 0.45187,0.13556c0.16308,0.10079 0.22593,0.22593 0.36149,0.36149c0.09037,0.09037 0.22221,0.31887 0.31631,0.45187c0.13049,0.18444 0.218,0.36592 0.27112,0.45187c0.11878,0.19219 0.27284,0.30373 0.45187,0.49705c0.06865,0.07414 0.18075,0.18075 0.18075,0.31631c0,0.09037 0.17988,0.15999 0.31631,0.36149c0.02533,0.03742 0,0.09037 0,0.18075c0,0.13556 0.18907,0.39228 0.72299,0.99411c0.16964,0.19121 0.45187,0.49705 0.63261,0.6778c0.13556,0.13556 0.22014,0.22998 0.31631,0.36149c0.17078,0.23356 0.37308,0.39751 0.40668,0.45187c0.07512,0.12155 0.22918,0.16679 0.45187,0.22593c0.13811,0.03668 0.32688,0.15784 0.54224,0.27112c0.14419,0.07585 0.31631,0.18075 0.40668,0.18075c0.13556,0 0.24331,0.05476 0.27112,0.09037c0.11466,0.14685 0.27112,0.04519 0.31631,0.04519c0.04519,0 0.09037,0 0.13556,0.04519c0.09037,0.09037 0.13556,0.18075 0.13556,0.22593c0,0.13556 0.02073,0.16689 0.04519,0.22593c0.01729,0.04175 0.07714,0.1488 0.04519,0.18075c-0.03195,0.03195 -0.05842,0.03195 -0.09037,0c-0.0639,-0.0639 0,-0.18075 0,-0.27112c0,0 0.0277,-0.13184 -0.09037,-0.18075c-0.0835,-0.03458 -0.15629,-0.01385 -0.18075,0.04519c-0.01729,0.04175 0.01729,0.139 0,0.18075c-0.02445,0.05904 0,-0.13556 0.18075,-0.31631c0.18075,-0.18075 0.38923,-0.32973 0.49705,-0.45187c0.06687,-0.07575 0.10098,-0.18763 0.13556,-0.27112c0.04891,-0.11808 0.13638,-0.1722 0.18075,-0.18075c0.23895,-0.04602 0.41264,-0.16969 0.58743,-0.27112c0.14091,-0.08178 0.22593,-0.18075 0.36149,-0.18075c0.04519,0 0.1117,-0.08503 0.09037,-0.04519c-0.15375,0.28729 -0.69141,0.38471 -0.99411,0.58743c-0.42808,0.28668 -0.73772,0.48499 -0.99411,0.81336c-0.06218,0.07964 -0.0492,0.08212 0.31631,-0.09037c0.40247,-0.18994 0.89767,-0.55986 1.40078,-0.72298c0.31293,-0.10146 0.60911,-0.16612 0.54224,-0.09037c-0.21564,0.24428 -0.61505,0.4472 -0.99411,0.58743c-0.34947,0.12928 -0.44955,0.08342 -0.40668,-0.04519c0.07145,-0.21434 0.31833,-0.35923 0.72299,-0.72299c0.49957,-0.44908 0.94353,-0.86666 1.44597,-1.44597c0.29606,-0.34136 0.64762,-0.5182 0.94892,-0.72299c0.2393,-0.16264 0.66216,-0.34818 0.58743,-0.45187c-0.05908,-0.08197 -0.26533,0.22998 -0.36149,0.36149c-0.34156,0.46711 -0.44177,0.71013 -0.85855,0.94892c-0.12398,0.07104 -0.2185,0.0506 -0.22593,-0.13556c-0.01097,-0.27464 0.24037,-0.7524 0.58743,-1.08448c0.4181,-0.40006 0.85855,-0.63261 1.12966,-0.63261c0.04519,0 0,0.04519 -0.13556,0.22593c-0.27112,0.36149 -0.55377,0.80239 -0.76817,1.03929c-0.43093,0.47618 -0.70102,0.83692 -0.99411,1.17485c-0.14803,0.17068 -0.18075,0.22593 -0.22593,0.22593c-0.04519,0 -0.22418,-0.05396 -0.13556,-0.49705c0.1152,-0.57602 0.82125,-1.30949 1.6719,-1.98821c0.60769,-0.48486 1.1341,-0.77779 1.44597,-1.26523c0.27228,-0.42555 0.67251,-0.90709 0.90373,-1.26522c0.17674,-0.27375 0.27554,-0.39875 0.36149,-0.45187c0.07688,-0.04751 0.23943,0.04751 0.31631,0c0.08595,-0.05312 0.08671,0.00484 0.04519,0.18075c-0.09286,0.39335 -0.38832,0.87896 -1.03929,1.44597c-0.41592,0.36228 -0.85574,0.56476 -1.12967,0.58743c-0.04503,0.00373 -0.01062,-0.14644 0.45187,-0.58743c0.48616,-0.46356 1.03193,-1.08972 1.3556,-1.53634c0.13258,-0.18294 0.32424,-0.27554 0.27112,-0.36149c-0.02376,-0.03844 -0.27995,0.08187 -0.49705,0.31631c-0.28306,0.30567 -0.58309,0.76178 -0.72299,1.31041c-0.03349,0.13136 0.10373,-0.08526 0.27112,-0.54224c0.0983,-0.26835 0.09037,-0.63261 0.09037,-0.99411c0,-0.54224 0,-0.99411 0,-1.3556c0,-0.45187 -0.04811,-0.74096 -0.18075,-0.99411c-0.10486,-0.20013 -0.25334,-0.34065 -0.31631,-0.45187c-0.09179,-0.16213 -0.2057,-0.55386 -0.31631,-0.72299c-0.19317,-0.29536 -0.42408,-0.55905 -0.54224,-0.72299c-0.07473,-0.10368 -0.27112,-0.18075 -0.31631,-0.18075c-0.13556,0 -0.19398,-0.03195 -0.22593,0c-0.12781,0.12781 -0.02958,0.49867 0,0.76817c0.04546,0.41411 0.1486,0.80741 0.22593,0.99411c0.10937,0.26403 0.32678,0.57742 0.54224,0.81336c0.23799,0.2606 0.62461,0.74744 0.81336,1.12966c0.17094,0.34617 0.24836,0.67363 0.27112,0.85855c0.01104,0.0897 0.0485,0.17766 0.09037,0.22593c0.14803,0.17068 0.20932,0.36613 0.18075,0.45187c-0.07145,0.21434 -0.27112,0.18075 -0.45187,0.18075c-0.09037,0 -0.14879,0.03195 -0.18075,0c-0.19171,-0.19171 0.18075,-0.90373 0.18075,-1.3556c0,-0.54224 0,-1.08448 0,-1.53634c0,-0.45187 0,-0.72299 0,-0.99411c0,-0.27112 0,-0.36149 0,-0.27112c0,0.13556 0,0.49705 0,0.76817c0,0.27112 0,0.58743 0,0.76817c0,0.09037 0.01789,0.19098 -0.04519,0.18075c-0.09974,-0.01618 -0.23318,-0.54058 -0.27112,-0.72299c-0.05597,-0.2691 -0.16969,-0.5482 -0.27112,-0.72299c-0.16355,-0.28183 -0.20425,-0.46649 -0.27112,-0.54224c-0.10782,-0.12214 -0.20323,-0.09373 -0.22593,0.13556c-0.01781,0.17987 -0.00923,0.45598 0.13556,0.76817c0.08502,0.18332 0.30948,0.33595 0.22593,0.45187c-0.02642,0.03666 -0.11345,-0.01193 -0.31631,-0.36149c-0.16355,-0.28183 -0.27112,-0.54224 -0.36149,-0.81336c-0.09037,-0.27112 -0.18517,-0.48912 -0.27112,-0.54224c-0.03844,-0.02376 -0.13556,0 -0.22593,0c-0.04519,0 -0.22593,0 -0.45187,0c-0.13556,0 -0.27438,-0.03418 -0.45187,0c-0.23895,0.04602 -0.39872,0.11235 -0.49705,0.13556c-0.13193,0.03115 -0.22593,0 -0.36149,0c-0.22593,0 -0.36592,0.09831 -0.45187,0.04519c-0.07688,-0.04751 -0.04341,-0.24173 0.31631,-0.45187c0.45668,-0.26678 0.88133,-0.31791 1.08448,-0.45187c0.1067,-0.07036 0.139,-0.10767 0.18075,-0.09037c0.11808,0.04891 0.2127,0.14879 0.18075,0.18075c-0.44732,0.44732 -1.41548,-0.06627 -2.16896,0.13556c-0.51088,0.13685 -0.65707,0.30245 -0.63261,0.36149c0.06917,0.16699 0.76817,0 1.31041,0c0.45187,0 0.86537,-0.07073 0.94892,0.04519c0.02642,0.03666 -0.12418,0.16123 -0.40668,0.27112c-0.61317,0.23851 -1.49971,0.24296 -1.98821,0.40668c-0.23072,0.07733 -0.22593,0.13556 0.18075,0.13556c0.54224,0 1.12966,0 1.6719,0c0.31631,0 0.45531,-0.01729 0.49705,0c0.11808,0.04891 0.31631,0.22593 0.31631,0.13556c0,-0.13556 -0.58779,0.02732 -1.62672,0c-0.85944,-0.0226 -1.58153,-0.22593 -2.07858,-0.22593c-0.27112,0 -0.36149,0 -0.31631,0c0.18075,0 0.45187,0 1.17485,0c1.12966,0 1.80746,0 2.39489,0c0.36149,0 0.45187,0 0.31631,0c-1.17485,0 -2.70894,0.04516 -4.06679,0.09037c-1.80646,0.06015 -3.43418,0 -3.56974,0c-0.04519,0 0.12564,0.13922 0.6778,0.22593c0.67108,0.10539 1.49396,0.19488 2.66601,0.31631c1.04252,0.10801 2.11346,0.32996 2.98232,0.45187c0.62807,0.08813 1.15412,0.12171 1.12967,0.18075c-0.24209,0.58446 -1.67286,0.00663 -3.56974,-0.27112c-1.8084,-0.2648 -2.53045,-0.13556 -2.57564,-0.13556c0,0 0.40668,0 0.85855,0c1.98821,0 3.389,0 4.51866,0c0.85855,0 1.44597,0.09037 1.44597,0c0,-0.04519 -1.04187,0.02222 -2.30452,-0.13556c-1.90231,-0.23771 -2.9878,-0.55778 -2.93713,-0.63261c0.27284,-0.403 1.10932,-0.36048 1.71709,-0.45187c0.49153,-0.07391 0.90373,-0.09037 1.49116,-0.09037c0.81336,0 1.58305,0.28998 2.0334,0.40668c0.13122,0.034 0.27112,0.04519 0.63261,0.04519c0.27112,0 0.40668,0 0.40668,0c-0.45187,0 -0.95834,-0.10481 -1.53634,0c-0.37988,0.06889 -0.514,0.2092 -0.40668,0.36149c0.09385,0.13318 0.46266,0.3497 0.85855,0.72299c0.32546,0.30688 0.49705,0.58743 0.6778,0.6778c0.09037,0.04519 0.2728,0.11958 0.45187,-0.04519c0.07435,-0.06842 0.1499,-0.11275 0.09037,-0.18075c-0.45043,-0.51448 -1.89605,-0.31629 -3.61493,-0.36149c-1.21962,-0.03207 -2.07858,0 -2.62082,0c-0.40668,0 -0.49705,0 -0.22593,0c1.58153,0 2.53045,0 3.43418,0c0.49705,0 0.23122,-0.1188 -0.18075,-0.18075c-1.12068,-0.16851 -3.06534,-0.42388 -5.10609,-0.63261c-1.26186,-0.12907 -1.22004,-0.09037 -0.76817,-0.09037c0.58743,0 1.53634,0 2.84676,0c1.26522,0 2.30277,0.0594 2.98232,0.13556c0.496,0.05559 0.90162,0.2033 1.26523,0.22593c0.0902,0.00562 -0.54224,0 -1.12967,0c-0.18075,0 -0.18075,0 0.22593,0c0.6778,0 1.17485,0 1.58153,0c0.04519,0 0.11481,-0.2268 0.31631,-0.09037c0.11225,0.076 -0.13243,0.28051 -0.22593,0.63261c-0.0232,0.08735 0.00245,0.11601 0.13556,0.09037c0.23895,-0.04602 0.54224,-0.27112 0.76817,-0.27112c0.13556,0 0.21583,-0.01362 0.27112,0.18075c0.13656,0.48005 0.16192,0.93776 0.36149,1.44597c0.10446,0.26601 0.13556,0.49705 0.13556,0.63261c0,0.09037 -0.06716,0.09834 -0.09037,0c-0.06229,-0.26387 0,-0.72299 0,-1.3556c0,-0.18075 0,-0.13556 0,0.72299c0,0.85855 0,1.31041 0.18075,1.85265c0.13556,0.40668 0.25788,0.55547 0.22593,0.58743c-0.03195,0.03195 -0.10375,-0.4501 -0.18075,-1.08448c-0.05472,-0.45081 -0.06829,-0.63397 -0.09037,-0.81336c-0.02276,-0.18491 -0.06267,-0.40296 -0.18075,-0.45187c-0.04175,-0.01729 -0.21248,0.76914 -0.27112,1.49116c-0.03676,0.45263 -0.09037,0.6778 -0.04519,0.6778c0.27112,0 -0.04897,-0.82367 -0.22593,-1.44597c-0.18374,-0.64613 -0.28362,-1.08895 -0.36149,-1.53634c-0.03195,-0.18355 -0.09037,-0.18075 -0.09037,0.22593c0,0.6778 0,1.44597 0,2.07858c0,0.27112 0.06229,0.39943 0,0.13556c-0.06964,-0.29501 -0.41139,-0.65586 -0.63261,-0.99411c-0.19317,-0.29536 -0.3463,-0.64543 -0.45187,-0.99411c-0.08784,-0.29011 -0.20257,-0.39123 -0.13556,-0.45187c0.33671,-0.30472 1.01611,0.4228 1.58153,1.40078c0.34449,0.59585 0.27112,0.76817 0.27112,1.08448c0,0.18075 0,0.31631 0,0.45187c0,0.04519 0,0.18075 0,0.27112c0,0.13556 0.00549,0.24823 -0.13556,0.27112c-0.0892,0.01448 -0.21182,0.10133 -0.36149,0c-0.2015,-0.13642 -0.09037,-0.40668 -0.09037,-0.76817c0,-0.45187 0.02236,-1.0854 0,-1.3556c-0.02267,-0.27392 -0.16629,-0.59339 -0.40668,-0.81336c-0.4177,-0.38222 -1.24703,-0.68723 -2.53045,-1.08448c-1.69616,-0.52501 -3.29906,-0.6676 -4.69941,-0.63261c-0.90458,0.0226 -1.25456,0.02385 -1.3556,0.22593c-0.02021,0.04042 -0.00445,0.25526 0.49705,0.31631c0.71909,0.08754 2.08462,0.06649 3.16306,0.18075c0.64337,0.06816 0.81305,0.15813 0,0.13556c-0.8143,-0.0226 -1.62672,-0.04519 -2.3497,-0.04519c-0.13556,0 -0.1946,0.02073 -0.13556,0.04519c0.54271,0.2248 1.56705,0.23442 2.98232,0.58743c1.92612,0.48042 3.86434,0.25466 3.79567,0.6778c-0.00724,0.0446 -0.68004,0.07398 -1.89784,0c-1.86294,-0.11317 -3.55696,-0.49665 -4.51866,-0.58743c-0.35989,-0.03397 -0.40668,0 -0.36149,0c0.36149,0 1.31041,0 2.80157,0c2.16896,0 2.98232,0.09037 2.98232,0c0,-0.13556 -1.04299,0.03141 -2.7112,-0.18075c-1.85742,-0.23623 -3.47937,-0.63261 -3.47937,-0.45187c0,0.13556 0.6778,-0.09037 0.99411,-0.09037c1.6719,0 2.39489,0 2.80157,0c0.13556,0 0.18075,0.09037 0.18075,0.18075c0,0.04519 0.03195,0.1488 0,0.18075c-0.44732,0.44732 -1.53312,-0.04514 -2.48526,-0.09037c-0.22568,-0.01072 0.03792,0.04719 0.76817,0.13556c1.61743,0.19572 2.93113,0.34942 3.84086,0.49705c0.3596,0.05836 0.31631,0.04519 -0.31631,0.04519c-0.58743,0 -2.12377,0 -3.84086,0c-0.99411,0 -1.30814,0.2282 -1.08448,0.45187c0.63904,0.63904 1.98465,0.04512 2.84676,0.09037c0.45125,0.02368 0.5916,0.01874 0.22593,0.09037c-1.25423,0.24569 -2.08052,0.09926 -3.79568,0.18075c-0.95214,0.04524 -1.00176,0.33337 -0.94892,0.40668c0.08355,0.11592 0.72323,0.02364 1.6719,0.04519c0.99487,0.0226 1.98821,0.09037 2.75638,0.09037c0.13556,0 -0.1412,-0.08324 -1.22004,-0.22593c-2.00336,-0.26497 -4.31346,-0.73684 -4.33791,-0.6778c-0.03458,0.08349 0.5032,-0.08788 1.22004,-0.22593c0.79868,-0.15381 1.53634,-0.18075 1.85265,-0.18075c0.09037,0 -0.45304,-0.04248 -1.22004,0c-0.40856,0.02263 -0.40457,0.05201 0.04519,-0.09037c0.54491,-0.17251 1.8076,0.23111 1.76228,-0.36149c-0.01378,-0.18022 -0.90373,0 -1.62672,0c-0.81336,0 -0.90922,0.0223 -0.76817,0.04519c0.31222,0.05067 0.85855,0 1.3556,0c0.13556,0 0.0968,0.13084 -0.63261,0.22593c-1.21311,0.15816 -2.63392,0.07236 -3.43418,0.27112c-0.13868,0.03444 -0.04519,0.04519 0.22593,0.04519c0.18075,0 0.63349,-0.02808 1.08448,0c0.3636,0.02264 0.51075,0.12514 0.54224,0.18075c0.09179,0.16213 0.11752,0.1923 0.18075,0.27112c0.11658,0.14533 -0.04519,0.36149 -0.31631,0.36149c-0.04519,0 0.09037,-0.04519 0.85855,-0.04519c0.45187,0 0.54224,0 -0.63261,0c-1.03929,0 -1.56894,0.03681 -1.58153,-0.09037c-0.03211,-0.32426 0.54224,-0.54224 0.45187,-0.54224c-0.09037,0 0.04519,0.13556 0.04519,0.18075c0,0.04519 0,0.22593 0,0.45187c0,0.13556 -0.05252,0.35416 0.09037,0.49705c0.14289,0.14289 0.59212,0.22247 1.31041,0.31631c0.91386,0.11939 1.92786,0.08838 2.16896,0.36149c0.0299,0.03388 -0.6778,0.09037 -1.80746,0.09037c-0.81336,0 -1.06072,0.03844 -1.08448,0c-0.05312,-0.08595 0.16458,-0.38849 0.45187,-0.54224c0.23904,-0.12793 0.94892,0.09037 1.76228,0.09037c0.27112,0 0.17702,0.01748 0.22593,0.13556c0.01729,0.04175 0.19484,-0.00383 0.58743,0.13556c0.28565,0.10142 0.39442,0.23753 0.31631,0.40668c-0.16296,0.3529 -1.09022,0.62926 -1.22004,0.85855c-0.02226,0.03932 0.54434,0.33535 1.03929,0.27112c0.5245,-0.06807 0.72299,-0.27112 0.72299,-0.09037c0,0.27112 -0.22981,0.56843 -0.31631,0.54224c-0.31186,-0.09442 -0.54934,-0.53665 -0.90373,-0.99411c-0.27673,-0.35721 -0.33708,-0.80623 -0.45187,-1.17485c-0.05539,-0.17788 -0.14315,-0.25481 0,-0.13556c0.4195,0.34947 0.8955,0.90237 1.12967,1.76228c0.11872,0.43599 0.13556,0.76817 0.13556,0.99411c0,0.22593 0.02771,0.35777 -0.09037,0.40668c-0.04175,0.01729 -0.22046,-0.04748 -0.6778,-1.12966c-0.26792,-0.63397 -0.56719,-1.00573 -0.6778,-1.17485c-0.19317,-0.29536 -0.22593,-0.18075 0,0.04519c0.22593,0.22593 0.84522,0.64013 1.12967,1.53634c0.1367,0.43069 0.01729,0.50049 0,0.54224c-0.02446,0.05904 -0.4994,0.11201 -0.90373,-0.22593c-0.36856,-0.30804 -0.474,-0.67118 -0.6778,-1.08448c-0.21243,-0.43081 -0.44164,-0.91118 -0.6778,-0.81336c-0.20873,0.08646 -0.10396,0.54511 0.27112,1.22004c0.36,0.6478 1.02059,1.27891 1.3556,1.71709c0.21435,0.28037 0.37178,0.36414 0.54224,0.45187c0.2444,0.12577 0.34278,0.10909 0.40668,0.04519c0.12781,-0.12781 0.02349,-0.61667 -0.36149,-1.3556c-0.33988,-0.65236 -1.25185,-1.34827 -1.3556,-1.17485c-0.48275,0.80689 1.83321,1.56452 2.21414,2.16896c0.19424,0.30821 0.3319,0.55024 0.40668,0.76817c0.06558,0.19114 0.09037,0.40668 0.13556,0.40668c0.54224,0 -0.04519,-1.17485 -0.13556,-1.3556c-0.04519,-0.09037 -0.12337,-0.08734 -0.09037,0.09037c0.1149,0.6188 0.49705,0.90373 0.94892,1.3556c0.27112,0.27112 0.5772,0.95637 0.81336,0.85855c0.04175,-0.01729 0.02827,-0.62432 -0.18075,-0.94892c-0.20758,-0.32237 -0.74922,-0.54136 -1.40078,-0.63261c-0.4475,-0.06267 -0.63261,0 -0.72299,0c-0.04519,0 0.01268,0.20805 0.45187,0.36149c0.51896,0.18131 1.26523,0.09037 1.80746,0.09037c0.45187,0 0.90373,-0.09037 1.58153,-0.27112c0.6778,-0.18075 0.9452,-0.24341 0.99411,-0.36149c0.03458,-0.08349 -0.41735,-0.30505 -1.03929,-0.45187c-0.27814,-0.06566 -0.36149,-0.09037 -0.36149,-0.09037c0.09037,-0.09037 0.13453,-0.24661 0.49705,-0.45187c0.49738,-0.28161 1.70143,-0.75833 2.48526,-1.08448c0.48831,-0.20319 0.82129,-0.27554 0.76817,-0.36149c-0.02376,-0.03844 -0.36149,0 -1.17485,0c-0.90373,0 -1.426,-0.04168 -1.6719,0.13556c-0.05184,0.03736 0.07822,-0.06901 0.45187,-0.58743c0.2954,-0.40984 0.52457,-0.58465 0.85855,-0.72299c0.11808,-0.04891 0.19371,-0.02246 0.04519,0.40668c-0.1927,0.55676 -0.8172,1.75849 -1.17485,2.39489c-0.22138,0.39392 -0.44825,0.98843 -0.58743,0.90373c-0.69907,-0.42546 0.09037,-1.62672 0.09037,-2.62082c0,-0.72299 0.10227,-1.12432 0.40668,-1.62672c0.18289,-0.30183 0.40668,-0.54224 0.40668,-0.54224c0,0.27112 0.08006,0.78564 -0.13556,1.58153c-0.26553,0.98011 -0.33756,1.53739 -0.6778,2.21414c-0.27606,0.54912 -0.49705,0.63261 -0.54224,0.63261c-0.18075,0 -0.43235,-0.16937 -0.54224,-0.45187c-0.23851,-0.61317 -0.38284,-1.49501 -0.09037,-2.25933c0.27783,-0.72608 0.90466,-1.02584 1.44597,-0.99411c0.77214,0.04526 1.12953,0.44669 1.17485,1.03929c0.02412,0.31538 0.0703,1.08569 -0.45187,1.53634c-0.26052,0.22484 -0.72299,0.27112 -0.94892,0.27112c-0.18075,0 -0.32141,-0.12173 -0.49705,-0.85855c-0.19121,-0.8021 -0.18452,-1.99298 0.27112,-2.3497c0.50942,-0.39883 1.2007,-0.64072 1.53634,-0.40668c0.4144,0.28896 0.46961,0.92409 0.31631,1.49116c-0.16383,0.606 -1.06453,1.07275 -1.98821,1.26522c-1.11384,0.23211 -1.93748,0.21864 -1.85265,-0.27112c0.11465,-0.66189 0.97839,-1.08387 1.76228,-1.17485c0.53862,-0.06251 0.98274,-0.07049 1.03929,0c0.26068,0.32497 -0.54109,1.2524 -1.31041,2.30452c-0.34156,0.46711 -0.55547,0.75494 -0.58743,0.72299c-0.09586,-0.09586 -0.02316,-0.49956 -0.09037,-1.40078c-0.06797,-0.91131 -0.43241,-1.93538 0,-2.53045c0.33283,-0.45803 0.99411,-0.54224 1.22004,-0.54224c0.40668,0 0.57667,0.21864 0.72299,0.99411c0.11849,0.62795 0.09037,1.31041 0.09037,1.85265c0,0.22593 -0.12458,0.3609 -0.40668,0.40668c-0.44603,0.07238 -1.29981,-0.2705 -2.0334,-0.99411c-0.82395,-0.81274 -1.03999,-1.58518 -0.85855,-1.89784c0.18285,-0.31509 0.67686,-0.36582 1.08448,-0.45187c0.45088,-0.09517 1.04503,0.10868 1.26522,0.58743c0.29854,0.6491 0.36871,1.42214 -0.04519,2.12377c-0.27646,0.46865 -0.73926,0.80235 -0.94892,1.12966c-0.1965,0.30677 -0.40963,0.52519 -0.54224,0.49705c-0.43534,-0.09239 -0.96038,-0.56777 -1.22004,-1.3556c-0.22807,-0.692 -0.21268,-1.4526 -0.13556,-1.89784c0.11465,-0.66189 0.49705,-0.90373 0.76817,-0.90373c0.31631,0 0.78382,0.23772 1.17485,1.17485c0.42051,1.00777 0.66063,1.71025 0.45187,2.25933c-0.19337,0.5086 -0.81336,0.54224 -1.3556,0.54224c-0.49705,0 -0.83677,-0.3466 -1.17485,-0.90373c-0.53507,-0.88176 -1.19811,-1.68293 -1.22004,-2.44008c-0.01079,-0.37246 0.19727,-0.6306 0.63261,-0.72299c0.57463,-0.12194 1.26873,0.1903 1.76228,0.85855c0.51638,0.69916 0.63944,1.7192 0.49705,2.16896c-0.08626,0.27246 -0.35127,0.67035 -0.58743,0.76817c-0.16699,0.06917 -0.59823,-0.0298 -0.99411,-0.45187c-0.37734,-0.4023 -0.76795,-1.16815 -0.81336,-1.62672c-0.02672,-0.2698 0.0794,-0.58683 0.36149,-0.63261c0.53524,-0.08686 1.38819,0.5295 1.94302,1.3556c0.37198,0.55385 0.44637,1.40183 0.18075,1.94302c-0.28296,0.57653 -0.52839,0.69853 -0.58743,0.72299c-0.04175,0.01729 -0.31923,0.1542 -0.58743,-0.22593c-0.31691,-0.44918 -0.20333,-1.44503 -0.22593,-2.25933c-0.01505,-0.54203 -0.11171,-0.90373 0.09037,-0.90373c0.60624,0 0.45674,1.32555 0.81336,2.21414c0.40671,1.01342 0.45187,1.31041 0.45187,1.40078c0,0.04519 0.0188,-0.01735 -0.31631,-0.36149c-0.55772,-0.57275 -1.4587,-1.15793 -2.30452,-1.80746c-0.45895,-0.35245 -0.61555,-0.46826 -0.63261,-0.40668c-0.09946,0.3591 0.45203,0.90356 0.99411,1.40079c0.54615,0.50097 0.89247,0.89831 1.40078,1.17485c0.12552,0.06829 0.24991,0.07662 0.18075,-0.09037c-0.04891,-0.11808 -0.11846,-0.36875 -0.18075,-0.63261c-0.06964,-0.29501 -0.13556,-0.45187 -0.13556,-0.72299c0,-0.36149 -0.0638,-0.79081 0.31631,-1.08448c0.31983,-0.2471 0.70579,-0.37161 0.94892,-0.36149c0.10095,0.0042 0.29368,0.44999 0.31631,0.85855c0.02499,0.45117 -0.25622,0.79004 -0.72299,0.85855c-0.22354,0.03281 -0.31631,0 -0.31631,-0.18075c0,-0.45187 -0.05488,-1.10597 0.18075,-1.62672c0.25879,-0.57193 0.70831,-0.92372 1.03929,-1.3556c0.06146,-0.0802 0.33583,-0.13715 0.49705,0.6778c0.28061,1.41848 0.05191,2.31056 0,2.53045c-0.04643,0.19668 -0.22593,0.22593 -0.76817,-0.04519l-0.36149,-0.45187l-0.49705,-0.54224l-0.31631,-0.72299" id="svg_3" fill="none"/>
  <path d="m5.11066,5.93908c0.04519,0 0.09037,-0.09037 0.18075,-0.09037c0.04519,0 0.09096,-0.00724 0.13556,0c0.14105,0.02289 0.18075,0.09037 0.27112,0.13556l0.09037,0l0.04519,0.04519l0.04519,0" id="svg_4" fill="none"/>
 </g>
</svg>