<svg width="28"
     height="28"
     viewBox="0 0 24 24"
     xmlns="http://www.w3.org/2000/svg"
>
 <g>
  <title>Layer 1</title>
  <g stroke-width="0" id="SVGRepo_bgCarrier"/>
  <g stroke-linejoin="round" stroke-linecap="round" id="SVGRepo_tracerCarrier"/>
  <g transform="rotate(18 11.4087 10.2133)" id="SVGRepo_iconCarrier">
   <g id="svg_1" data-name="Layer 2">
    <g id="svg_2" data-name="paper-plane">
     <rect x="-1.56172" y="-2.75713" id="svg_3" opacity="0" height="25.94077" width="25.94077"/>
     <path id="svg_4" d="m21.13645,1.56633a1.41593,1.41593 0 0 0 -0.06485,-0.29183l0,-0.09728a1.08087,1.08087 0 0 0 -0.21617,-0.32426a1.08087,1.08087 0 0 0 -0.31345,-0.20536l-0.09728,0a0.92954,0.92954 0 0 0 -0.33507,-0.16213l-0.05404,0a1.08087,1.08087 0 0 0 -0.32426,0l-19.45558,6.48519a1.08087,1.08087 0 0 0 0,2.05364l9.21978,3.06966l3.06966,9.21978a1.08087,1.08087 0 0 0 2.05364,0l6.48519,-19.45558a1.08087,1.08087 0 0 0 0.03243,-0.29183zm-5.08007,2.47518l-6.02042,6.02042l-6.02042,-2.01041l12.04084,-4.01001zm-2.48599,13.56486l-2.01041,-6.02042l6.02042,-6.02042l-4.01001,12.04084z"/>
    </g>
   </g>
  </g>
 </g>
</svg>